<?xml version="1.0" encoding="UTF-8"?>
<!DOCTYPE svg PUBLIC "-//W3C//DTD SVG 1.1//EN" "http://www.w3.org/Graphics/SVG/1.1/DTD/svg11.dtd">
<svg xmlns="http://www.w3.org/2000/svg" version="1.1" width="1200px" height="1155px" style="shape-rendering:geometricPrecision; text-rendering:geometricPrecision; image-rendering:optimizeQuality; fill-rule:evenodd; clip-rule:evenodd" xmlns:xlink="http://www.w3.org/1999/xlink">
<g><path style="opacity:0.981" fill="#f18d00" d="M 428.5,-0.5 C 438.167,-0.5 447.833,-0.5 457.5,-0.5C 469.722,1.5556 481.722,4.5556 493.5,8.5C 492.844,9.27775 492.011,9.94442 491,10.5C 444.835,25.9439 398.669,41.2772 352.5,56.5C 363.218,41.9446 375.551,28.778 389.5,17C 401.351,8.4042 414.351,2.57087 428.5,-0.5 Z"/></g>
<g><path style="opacity:0.984" fill="#f18d00" d="M 742.5,-0.5 C 752.167,-0.5 761.833,-0.5 771.5,-0.5C 793.787,4.40018 812.621,15.4002 828,32.5C 834.38,40.0411 840.547,47.7078 846.5,55.5C 846.44,56.0431 846.107,56.3764 845.5,56.5C 798.661,40.6657 751.994,24.6657 705.5,8.5C 717.738,4.68994 730.071,1.68994 742.5,-0.5 Z"/></g>
<g><path style="opacity:0.995" fill="#f29200" d="M 493.5,8.5 C 510.621,13.4293 527.621,18.7626 544.5,24.5C 544.53,25.4972 544.03,26.1639 543,26.5C 468.131,51.7333 393.631,76.7333 319.5,101.5C 330.256,86.3224 341.256,71.3224 352.5,56.5C 398.669,41.2772 444.835,25.9439 491,10.5C 492.011,9.94442 492.844,9.27775 493.5,8.5 Z"/></g>
<g><path style="opacity:0.995" fill="#f29200" d="M 705.5,8.5 C 751.994,24.6657 798.661,40.6657 845.5,56.5C 846.107,56.3764 846.44,56.0431 846.5,55.5C 858.399,70.95 870.065,86.6166 881.5,102.5C 805.681,76.4492 729.681,50.7825 653.5,25.5C 670.613,19.4629 687.946,13.7962 705.5,8.5 Z"/></g>
<g><path style="opacity:0.995" fill="#f39700" d="M 544.5,24.5 C 557.239,28.6012 570.239,31.6012 583.5,33.5C 487.197,66.3791 390.863,98.3791 294.5,129.5C 303.312,120.502 311.645,111.169 319.5,101.5C 393.631,76.7333 468.131,51.7333 543,26.5C 544.03,26.1639 544.53,25.4972 544.5,24.5 Z"/></g>
<g><path style="opacity:0.996" fill="#f39700" d="M 653.5,25.5 C 729.681,50.7825 805.681,76.4492 881.5,102.5C 889.827,112.16 898.494,121.494 907.5,130.5C 810.475,98.9363 713.809,66.603 617.5,33.5C 629.639,31.4652 641.639,28.7985 653.5,25.5 Z"/></g>
<g><path style="opacity:0.998" fill="#f49a00" d="M 583.5,33.5 C 587.466,34.1621 591.466,34.4955 595.5,34.5C 595.5,39.1667 595.5,43.8333 595.5,48.5C 495.562,82.0349 395.562,115.368 295.5,148.5C 291.826,145.001 288.492,141.167 285.5,137C 285.759,135.739 286.426,134.739 287.5,134C 289.734,132.25 292.068,130.75 294.5,129.5C 390.863,98.3791 487.197,66.3791 583.5,33.5 Z"/></g>
<g><path style="opacity:0.997" fill="#f49a00" d="M 617.5,33.5 C 713.809,66.603 810.475,98.9363 907.5,130.5C 910.284,132.218 912.617,134.384 914.5,137C 911.696,141.632 908.363,145.799 904.5,149.5C 805.118,115.761 705.618,82.0945 606,48.5C 605.617,49.056 605.117,49.3893 604.5,49.5C 603.746,44.5365 603.413,39.5365 603.5,34.5C 608.181,34.3314 612.848,33.9981 617.5,33.5 Z"/></g>
<g><path style="opacity:0.999" fill="#f49f00" d="M 595.5,48.5 C 595.5,50.8333 595.5,53.1667 595.5,55.5C 594.046,64.2933 593.379,73.2933 593.5,82.5C 501.562,113.368 409.562,144.035 317.5,174.5C 311.599,168.355 305.932,162.022 300.5,155.5C 298.453,153.45 296.786,151.117 295.5,148.5C 395.562,115.368 495.562,82.0349 595.5,48.5 Z"/></g>
<g><path style="opacity:1" fill="#f49f00" d="M 904.5,149.5 C 903.833,150.5 903.167,151.5 902.5,152.5C 895.833,159.833 889.167,167.167 882.5,174.5C 790.433,144.033 698.433,113.367 606.5,82.5C 605.982,73.3424 605.315,64.3424 604.5,55.5C 604.5,53.5 604.5,51.5 604.5,49.5C 605.117,49.3893 605.617,49.056 606,48.5C 705.618,82.0945 805.118,115.761 904.5,149.5 Z"/></g>
<g><path style="opacity:1" fill="#fffefd" d="M 595.5,55.5 C 598.5,55.5 601.5,55.5 604.5,55.5C 605.315,64.3424 605.982,73.3424 606.5,82.5C 606.58,93.8425 606.913,105.176 607.5,116.5C 608.087,127.824 608.42,139.157 608.5,150.5C 609.353,163.814 610.019,177.147 610.5,190.5C 610.973,201.828 611.307,213.162 611.5,224.5C 612.305,234.812 612.638,245.146 612.5,255.5C 613.039,267.855 613.706,280.188 614.5,292.5C 614.992,304.828 615.325,317.161 615.5,329.5C 615.851,342.005 616.518,354.338 617.5,366.5C 617.373,377.852 617.706,389.185 618.5,400.5C 618.783,414.505 619.283,428.505 620,442.5C 623.153,453.988 630.653,459.488 642.5,459C 646.175,458.443 649.508,457.11 652.5,455C 662.209,443.714 671.543,432.214 680.5,420.5C 687.846,412.484 694.846,404.151 701.5,395.5C 709.062,386.723 716.395,377.723 723.5,368.5C 731.823,358.54 740.156,348.54 748.5,338.5C 756.137,329.191 763.803,319.858 771.5,310.5C 778.489,301.873 785.489,293.206 792.5,284.5C 800.252,276.418 807.252,267.751 813.5,258.5C 822.87,248.762 831.537,238.429 839.5,227.5C 846.969,219.239 853.969,210.572 860.5,201.5C 868.584,193.086 875.917,184.086 882.5,174.5C 889.167,167.167 895.833,159.833 902.5,152.5C 904.816,153.806 907.15,155.139 909.5,156.5C 908.379,160.074 906.713,163.408 904.5,166.5C 897.02,176.113 890.02,186.113 883.5,196.5C 876.513,206.463 869.513,216.463 862.5,226.5C 854.256,237.985 846.256,249.651 838.5,261.5C 831.02,271.113 824.02,281.113 817.5,291.5C 810.096,300.636 803.429,310.303 797.5,320.5C 790.01,330.142 783.01,340.142 776.5,350.5C 767.676,362.143 759.343,374.143 751.5,386.5C 744.096,395.636 737.429,405.303 731.5,415.5C 723.729,424.942 716.729,434.942 710.5,445.5C 702.14,456.379 694.306,467.712 687,479.5C 684.628,494.118 690.628,502.785 705,505.5C 718.594,502.893 732.094,499.893 745.5,496.5C 756.366,493.367 767.366,490.7 778.5,488.5C 790.96,485.303 803.293,481.97 815.5,478.5C 829.388,475.611 843.055,472.277 856.5,468.5C 868.751,466.104 880.751,463.104 892.5,459.5C 905.059,456.943 917.393,453.943 929.5,450.5C 941.76,448.102 953.76,445.102 965.5,441.5C 979.395,438.609 993.062,435.275 1006.5,431.5C 1018.76,429.102 1030.76,426.102 1042.5,422.5C 1053.73,420.275 1064.73,417.609 1075.5,414.5C 1079.97,414.124 1084.3,413.124 1088.5,411.5C 1089.11,411.624 1089.44,411.957 1089.5,412.5C 1090.51,415.252 1091.51,417.919 1092.5,420.5C 1091.23,422.047 1089.57,423.047 1087.5,423.5C 1081.42,425.304 1075.42,427.304 1069.5,429.5C 1059.42,432.637 1049.42,435.971 1039.5,439.5C 1028.61,442.796 1017.94,446.463 1007.5,450.5C 997.028,453.435 986.695,456.769 976.5,460.5C 964.828,464.502 953.162,468.502 941.5,472.5C 930.609,475.796 919.943,479.463 909.5,483.5C 899.028,486.435 888.695,489.769 878.5,493.5C 867.609,496.796 856.943,500.463 846.5,504.5C 834.61,508.129 822.943,512.129 811.5,516.5C 800.216,519.595 789.216,523.261 778.5,527.5C 768.216,530.261 758.216,533.595 748.5,537.5C 738.196,540.101 728.196,543.601 718.5,548C 707.605,559.298 707.938,570.298 719.5,581C 729.411,585.458 739.411,589.625 749.5,593.5C 759.683,597.894 770.016,601.894 780.5,605.5C 790.872,610.346 801.539,614.679 812.5,618.5C 823.931,623.538 835.598,628.204 847.5,632.5C 857.93,637.204 868.597,641.538 879.5,645.5C 889.207,650.013 899.207,654.013 909.5,657.5C 919.93,662.204 930.597,666.538 941.5,670.5C 953.05,675.441 964.716,680.107 976.5,684.5C 986.526,689.287 996.859,693.287 1007.5,696.5C 1017.51,701.399 1027.85,705.733 1038.5,709.5C 1048.68,713.894 1059.02,717.894 1069.5,721.5C 1074.96,723.981 1080.29,726.648 1085.5,729.5C 1084.1,732.699 1083.1,736.032 1082.5,739.5C 921.236,694.359 760.069,648.692 599,602.5C 441.259,647.56 283.426,692.226 125.5,736.5C 124.5,733.167 123.5,729.833 122.5,726.5C 126.007,724.246 129.673,722.246 133.5,720.5C 143.984,716.894 154.317,712.894 164.5,708.5C 174.833,704.5 185.167,700.5 195.5,696.5C 206.167,692.167 216.833,687.833 227.5,683.5C 239.496,678.836 251.496,674.169 263.5,669.5C 273.986,665.344 284.319,661.01 294.5,656.5C 305.403,652.538 316.07,648.204 326.5,643.5C 336.984,639.894 347.317,635.894 357.5,631.5C 370.01,626.739 382.343,621.739 394.5,616.5C 404.949,612.775 415.282,608.775 425.5,604.5C 436.012,600.405 446.345,596.072 456.5,591.5C 466.173,588.497 475.507,584.663 484.5,580C 494.437,568.368 493.77,557.368 482.5,547C 473.981,543.66 465.315,540.827 456.5,538.5C 445.784,534.261 434.784,530.595 423.5,527.5C 413.057,523.463 402.391,519.796 391.5,516.5C 379.306,512.102 366.972,508.102 354.5,504.5C 344.057,500.463 333.391,496.796 322.5,493.5C 311.833,489.833 301.167,486.167 290.5,482.5C 279.894,478.964 269.227,475.631 258.5,472.5C 246.312,467.991 233.978,463.658 221.5,459.5C 210.894,455.964 200.227,452.631 189.5,449.5C 179.057,445.463 168.391,441.796 157.5,438.5C 146.833,434.833 136.167,431.167 125.5,427.5C 121.851,426.733 118.518,425.4 115.5,423.5C 116.497,420.183 117.497,416.85 118.5,413.5C 120.117,414.038 121.784,414.371 123.5,414.5C 135.24,418.102 147.24,421.102 159.5,423.5C 171.24,427.102 183.24,430.102 195.5,432.5C 208.573,436.435 221.907,439.768 235.5,442.5C 247.24,446.102 259.24,449.102 271.5,451.5C 283.24,455.102 295.24,458.102 307.5,460.5C 319.24,464.102 331.24,467.102 343.5,469.5C 357.315,473.455 371.315,477.122 385.5,480.5C 397.5,483.5 409.5,486.5 421.5,489.5C 433.5,492.5 445.5,495.5 457.5,498.5C 470.01,502.127 482.676,505.127 495.5,507.5C 510.564,504.728 516.731,495.728 514,480.5C 507.216,469.241 499.716,458.575 491.5,448.5C 485.251,438.246 478.585,428.246 471.5,418.5C 464.134,408.143 456.801,397.81 449.5,387.5C 441.979,375.778 433.979,364.445 425.5,353.5C 418.884,342.888 411.884,332.555 404.5,322.5C 397.487,312.463 390.487,302.463 383.5,292.5C 376.98,282.113 369.98,272.113 362.5,262.5C 354.647,250.114 346.314,238.114 337.5,226.5C 330.98,216.113 323.98,206.113 316.5,196.5C 309.99,186.142 302.99,176.142 295.5,166.5C 294.37,164.685 293.704,162.685 293.5,160.5C 296.117,159.214 298.45,157.547 300.5,155.5C 305.932,162.022 311.599,168.355 317.5,174.5C 324.126,184.09 331.459,193.09 339.5,201.5C 346.511,210.206 353.511,218.873 360.5,227.5C 368.939,238.058 377.606,248.392 386.5,258.5C 393.031,267.572 400.031,276.239 407.5,284.5C 414.863,293.525 422.197,302.525 429.5,311.5C 436.487,320.485 443.821,329.152 451.5,337.5C 459.461,348.128 467.794,358.461 476.5,368.5C 483.487,377.485 490.821,386.152 498.5,394.5C 504.748,403.751 511.748,412.418 519.5,420.5C 528.621,432.126 537.954,443.626 547.5,455C 558.567,461.895 568.4,460.395 577,450.5C 578.275,448.283 579.275,445.949 580,443.5C 580.803,429.175 581.303,414.842 581.5,400.5C 582.356,389.19 582.69,377.857 582.5,366.5C 583.308,357.524 583.642,348.524 583.5,339.5C 584.476,324.004 585.142,308.337 585.5,292.5C 586.136,281.178 586.469,269.844 586.5,258.5C 587.399,246.185 588.066,233.852 588.5,221.5C 588.485,211.153 588.818,200.819 589.5,190.5C 590.055,177.173 590.389,163.84 590.5,150.5C 591.432,138.524 592.099,126.524 592.5,114.5C 592.567,103.823 592.901,93.1564 593.5,82.5C 593.379,73.2933 594.046,64.2933 595.5,55.5 Z"/></g>
<g><path style="opacity:1" fill="#f5a500" d="M 593.5,82.5 C 592.901,93.1564 592.567,103.823 592.5,114.5C 591.733,115.172 591.066,116.005 590.5,117C 506.768,145.077 423.101,173.244 339.5,201.5C 331.459,193.09 324.126,184.09 317.5,174.5C 409.562,144.035 501.562,113.368 593.5,82.5 Z"/></g>
<g><path style="opacity:1" fill="#f5a500" d="M 606.5,82.5 C 698.433,113.367 790.433,144.033 882.5,174.5C 875.917,184.086 868.584,193.086 860.5,201.5C 776.241,172.969 691.907,144.636 607.5,116.5C 606.913,105.176 606.58,93.8425 606.5,82.5 Z"/></g>
<g><path style="opacity:1" fill="#f6ab00" d="M 592.5,114.5 C 592.099,126.524 591.432,138.524 590.5,150.5C 513.974,176.564 437.308,202.231 360.5,227.5C 353.511,218.873 346.511,210.206 339.5,201.5C 423.101,173.244 506.768,145.077 590.5,117C 591.066,116.005 591.733,115.172 592.5,114.5 Z"/></g>
<g><path style="opacity:1" fill="#f6ab00" d="M 607.5,116.5 C 691.907,144.636 776.241,172.969 860.5,201.5C 853.969,210.572 846.969,219.239 839.5,227.5C 762.438,202.035 685.438,176.368 608.5,150.5C 608.42,139.157 608.087,127.824 607.5,116.5 Z"/></g>
<g><path style="opacity:0.998" fill="#f49f00" d="M 293.5,160.5 C 293.704,162.685 294.37,164.685 295.5,166.5C 294.038,170.817 291.872,174.817 289,178.5C 234.057,257.408 178.891,336.075 123.5,414.5C 121.784,414.371 120.117,414.038 118.5,413.5C 108.425,411.481 98.4251,409.148 88.5,406.5C 148.51,319.804 208.51,233.138 268.5,146.5C 271.806,144.511 275.139,142.511 278.5,140.5C 283.521,147.235 288.521,153.901 293.5,160.5 Z"/></g>
<g><path style="opacity:0.999" fill="#f49f00" d="M 933.5,147.5 C 933.062,147.435 932.728,147.601 932.5,148C 992.802,233.789 1052.47,319.956 1111.5,406.5C 1104.17,408.5 1096.83,410.5 1089.5,412.5C 1089.44,411.957 1089.11,411.624 1088.5,411.5C 1084.3,413.124 1079.97,414.124 1075.5,414.5C 1018.53,331.851 961.525,249.185 904.5,166.5C 906.713,163.408 908.379,160.074 909.5,156.5C 913.803,151.353 917.97,146.02 922,140.5C 925.814,142.984 929.647,145.318 933.5,147.5 Z"/></g>
<g><path style="opacity:0.995" fill="#f49a00" d="M 268.5,146.5 C 208.51,233.138 148.51,319.804 88.5,406.5C 87.8761,406.083 87.5427,405.416 87.5,404.5C 91.2355,391.421 93.2355,378.087 93.5,364.5C 140.934,297.154 188.268,229.654 235.5,162C 234.584,161.722 233.918,161.222 233.5,160.5C 245.509,156.661 257.176,151.994 268.5,146.5 Z"/></g>
<g><path style="opacity:0.997" fill="#f49a00" d="M 933.5,147.5 C 944.011,152.226 954.678,156.559 965.5,160.5C 1011.42,227.602 1057.59,294.602 1104,361.5C 1104.67,362.252 1105.5,362.586 1106.5,362.5C 1106.78,377.177 1109.11,391.51 1113.5,405.5C 1113.04,406.298 1112.38,406.631 1111.5,406.5C 1052.47,319.956 992.802,233.789 932.5,148C 932.728,147.601 933.062,147.435 933.5,147.5 Z"/></g>
<g><path style="opacity:1" fill="#f7b100" d="M 590.5,150.5 C 590.389,163.84 590.055,177.173 589.5,190.5C 521.681,212.773 454.014,235.44 386.5,258.5C 377.606,248.392 368.939,238.058 360.5,227.5C 437.308,202.231 513.974,176.564 590.5,150.5 Z"/></g>
<g><path style="opacity:1" fill="#f7b100" d="M 608.5,150.5 C 685.438,176.368 762.438,202.035 839.5,227.5C 831.537,238.429 822.87,248.762 813.5,258.5C 745.838,235.835 678.172,213.168 610.5,190.5C 610.019,177.147 609.353,163.814 608.5,150.5 Z"/></g>
<g><path style="opacity:0.997" fill="#f39700" d="M 233.5,160.5 C 233.918,161.222 234.584,161.722 235.5,162C 188.268,229.654 140.934,297.154 93.5,364.5C 94.132,351.038 94.7986,337.705 95.5,324.5C 129.392,277.242 163.225,229.242 197,180.5C 199.112,177.273 200.945,173.94 202.5,170.5C 212.973,167.565 223.306,164.231 233.5,160.5 Z"/></g>
<g><path style="opacity:0.995" fill="#f39700" d="M 965.5,160.5 C 976.745,163.721 987.745,167.387 998.5,171.5C 1033.07,222.283 1067.9,272.949 1103,323.5C 1103.67,324.252 1104.5,324.586 1105.5,324.5C 1105.22,337.204 1105.56,349.87 1106.5,362.5C 1105.5,362.586 1104.67,362.252 1104,361.5C 1057.59,294.602 1011.42,227.602 965.5,160.5 Z"/></g>
<g><path style="opacity:1" fill="#f5a500" d="M 295.5,166.5 C 302.99,176.142 309.99,186.142 316.5,196.5C 315.56,199.714 314.06,202.714 312,205.5C 261.304,278.346 210.47,351.013 159.5,423.5C 147.24,421.102 135.24,418.102 123.5,414.5C 178.891,336.075 234.057,257.408 289,178.5C 291.872,174.817 294.038,170.817 295.5,166.5 Z"/></g>
<g><path style="opacity:1" fill="#f5a500" d="M 904.5,166.5 C 961.525,249.185 1018.53,331.851 1075.5,414.5C 1064.73,417.609 1053.73,420.275 1042.5,422.5C 1041.32,422.719 1040.32,422.386 1039.5,421.5C 987.475,346.482 935.475,271.482 883.5,196.5C 890.02,186.113 897.02,176.113 904.5,166.5 Z"/></g>
<g><path style="opacity:0.993" fill="#f29200" d="M 202.5,170.5 C 200.945,173.94 199.112,177.273 197,180.5C 163.225,229.242 129.392,277.242 95.5,324.5C 94.7747,303.385 95.9413,282.385 99,261.5C 105.896,224.262 127.062,198.762 162.5,185C 175.671,179.666 189.004,174.832 202.5,170.5 Z"/></g>
<g><path style="opacity:0.992" fill="#f29200" d="M 998.5,171.5 C 1023.41,177.519 1046.41,187.686 1067.5,202C 1084.81,215.763 1095.64,233.597 1100,255.5C 1103.89,278.322 1105.72,301.322 1105.5,324.5C 1104.5,324.586 1103.67,324.252 1103,323.5C 1067.9,272.949 1033.07,222.283 998.5,171.5 Z"/></g>
<g><path style="opacity:1" fill="#f8b800" d="M 589.5,190.5 C 588.818,200.819 588.485,211.153 588.5,221.5C 587.751,222.531 587.085,223.698 586.5,225C 526.835,244.944 467.169,264.777 407.5,284.5C 400.031,276.239 393.031,267.572 386.5,258.5C 454.014,235.44 521.681,212.773 589.5,190.5 Z"/></g>
<g><path style="opacity:1" fill="#f8b800" d="M 610.5,190.5 C 678.172,213.168 745.838,235.835 813.5,258.5C 807.252,267.751 800.252,276.418 792.5,284.5C 732.189,264.508 671.856,244.508 611.5,224.5C 611.307,213.162 610.973,201.828 610.5,190.5 Z"/></g>
<g><path style="opacity:1" fill="#f6ab00" d="M 316.5,196.5 C 323.98,206.113 330.98,216.113 337.5,226.5C 337.392,228.783 336.559,230.783 335,232.5C 288.28,299.047 241.78,365.713 195.5,432.5C 183.24,430.102 171.24,427.102 159.5,423.5C 210.47,351.013 261.304,278.346 312,205.5C 314.06,202.714 315.56,199.714 316.5,196.5 Z"/></g>
<g><path style="opacity:1" fill="#f6ab00" d="M 883.5,196.5 C 935.475,271.482 987.475,346.482 1039.5,421.5C 1040.32,422.386 1041.32,422.719 1042.5,422.5C 1030.76,426.102 1018.76,429.102 1006.5,431.5C 1005.5,431.586 1004.67,431.252 1004,430.5C 957.07,362.297 909.903,294.297 862.5,226.5C 869.513,216.463 876.513,206.463 883.5,196.5 Z"/></g>
<g><path style="opacity:1" fill="#f9be01" d="M 588.5,221.5 C 588.066,233.852 587.399,246.185 586.5,258.5C 534.018,275.994 481.685,293.66 429.5,311.5C 422.197,302.525 414.863,293.525 407.5,284.5C 467.169,264.777 526.835,244.944 586.5,225C 587.085,223.698 587.751,222.531 588.5,221.5 Z"/></g>
<g><path style="opacity:1" fill="#f9be00" d="M 611.5,224.5 C 671.856,244.508 732.189,264.508 792.5,284.5C 785.489,293.206 778.489,301.873 771.5,310.5C 719.036,293.845 666.702,276.679 614.5,259C 613.915,257.698 613.249,256.531 612.5,255.5C 612.638,245.146 612.305,234.812 611.5,224.5 Z"/></g>
<g><path style="opacity:1" fill="#f7b201" d="M 337.5,226.5 C 346.314,238.114 354.647,250.114 362.5,262.5C 321.554,321.953 280.387,381.287 239,440.5C 238.184,441.823 237.017,442.489 235.5,442.5C 221.907,439.768 208.573,436.435 195.5,432.5C 241.78,365.713 288.28,299.047 335,232.5C 336.559,230.783 337.392,228.783 337.5,226.5 Z"/></g>
<g><path style="opacity:1" fill="#f7b200" d="M 862.5,226.5 C 909.903,294.297 957.07,362.297 1004,430.5C 1004.67,431.252 1005.5,431.586 1006.5,431.5C 993.062,435.275 979.395,438.609 965.5,441.5C 964.325,441.719 963.325,441.386 962.5,440.5C 921.141,380.815 879.808,321.149 838.5,261.5C 846.256,249.651 854.256,237.985 862.5,226.5 Z"/></g>
<g><path style="opacity:1" fill="#fac400" d="M 586.5,258.5 C 586.469,269.844 586.136,281.178 585.5,292.5C 540.828,307.502 496.162,322.502 451.5,337.5C 443.821,329.152 436.487,320.485 429.5,311.5C 481.685,293.66 534.018,275.994 586.5,258.5 Z"/></g>
<g><path style="opacity:1" fill="#fac401" d="M 612.5,255.5 C 613.249,256.531 613.915,257.698 614.5,259C 666.702,276.679 719.036,293.845 771.5,310.5C 763.803,319.858 756.137,329.191 748.5,338.5C 748.389,337.883 748.056,337.383 747.5,337C 703.102,322.256 658.768,307.423 614.5,292.5C 613.706,280.188 613.039,267.855 612.5,255.5 Z"/></g>
<g><path style="opacity:1" fill="#f8b800" d="M 838.5,261.5 C 879.808,321.149 921.141,380.815 962.5,440.5C 963.325,441.386 964.325,441.719 965.5,441.5C 953.76,445.102 941.76,448.102 929.5,450.5C 928.504,450.586 927.671,450.252 927,449.5C 890.28,396.953 853.78,344.286 817.5,291.5C 824.02,281.113 831.02,271.113 838.5,261.5 Z"/></g>
<g><path style="opacity:1" fill="#f8b801" d="M 362.5,262.5 C 369.98,272.113 376.98,282.113 383.5,292.5C 346.855,346.119 309.521,399.119 271.5,451.5C 259.24,449.102 247.24,446.102 235.5,442.5C 237.017,442.489 238.184,441.823 239,440.5C 280.387,381.287 321.554,321.953 362.5,262.5 Z"/></g>
<g><path style="opacity:1" fill="#fbcb01" d="M 585.5,292.5 C 585.142,308.337 584.476,324.004 583.5,339.5C 583.808,337.076 583.474,334.743 582.5,332.5C 547.064,344.312 511.731,356.312 476.5,368.5C 467.794,358.461 459.461,348.128 451.5,337.5C 496.162,322.502 540.828,307.502 585.5,292.5 Z"/></g>
<g><path style="opacity:1" fill="#fbca01" d="M 614.5,292.5 C 658.768,307.423 703.102,322.256 747.5,337C 748.056,337.383 748.389,337.883 748.5,338.5C 740.156,348.54 731.823,358.54 723.5,368.5C 688.64,356.38 653.64,344.546 618.5,333C 617.186,332.015 616.186,330.848 615.5,329.5C 615.325,317.161 614.992,304.828 614.5,292.5 Z"/></g>
<g><path style="opacity:1" fill="#f9be01" d="M 817.5,291.5 C 853.78,344.286 890.28,396.953 927,449.5C 927.671,450.252 928.504,450.586 929.5,450.5C 917.393,453.943 905.059,456.943 892.5,459.5C 863.22,417.047 833.72,374.713 804,332.5C 801.128,328.817 798.962,324.817 797.5,320.5C 803.429,310.303 810.096,300.636 817.5,291.5 Z"/></g>
<g><path style="opacity:1" fill="#f9be01" d="M 383.5,292.5 C 390.487,302.463 397.487,312.463 404.5,322.5C 372.646,368.888 340.313,414.888 307.5,460.5C 295.24,458.102 283.24,455.102 271.5,451.5C 309.521,399.119 346.855,346.119 383.5,292.5 Z"/></g>
<g><path style="opacity:1" fill="#fac401" d="M 797.5,320.5 C 798.962,324.817 801.128,328.817 804,332.5C 833.72,374.713 863.22,417.047 892.5,459.5C 880.751,463.104 868.751,466.104 856.5,468.5C 830.513,429.876 804.013,391.543 777,353.5C 776.517,352.552 776.351,351.552 776.5,350.5C 783.01,340.142 790.01,330.142 797.5,320.5 Z"/></g>
<g><path style="opacity:1" fill="#fac401" d="M 404.5,322.5 C 411.884,332.555 418.884,342.888 425.5,353.5C 397.778,391.889 370.445,430.556 343.5,469.5C 331.24,467.102 319.24,464.102 307.5,460.5C 340.313,414.888 372.646,368.888 404.5,322.5 Z"/></g>
<g><path style="opacity:1" fill="#fcd101" d="M 583.5,339.5 C 583.642,348.524 583.308,357.524 582.5,366.5C 554.421,375.637 526.421,384.971 498.5,394.5C 490.821,386.152 483.487,377.485 476.5,368.5C 511.731,356.312 547.064,344.312 582.5,332.5C 583.474,334.743 583.808,337.076 583.5,339.5 Z"/></g>
<g><path style="opacity:1" fill="#fcd103" d="M 615.5,329.5 C 616.186,330.848 617.186,332.015 618.5,333C 653.64,344.546 688.64,356.38 723.5,368.5C 716.395,377.723 709.062,386.723 701.5,395.5C 673.907,385.079 645.907,375.412 617.5,366.5C 616.518,354.338 615.851,342.005 615.5,329.5 Z"/></g>
<g><path style="opacity:1" fill="#fbca01" d="M 776.5,350.5 C 776.351,351.552 776.517,352.552 777,353.5C 804.013,391.543 830.513,429.876 856.5,468.5C 843.055,472.277 829.388,475.611 815.5,478.5C 794.167,447.833 772.833,417.167 751.5,386.5C 759.343,374.143 767.676,362.143 776.5,350.5 Z"/></g>
<g><path style="opacity:1" fill="#fbcb01" d="M 425.5,353.5 C 433.979,364.445 441.979,375.778 449.5,387.5C 428.167,418.5 406.833,449.5 385.5,480.5C 371.315,477.122 357.315,473.455 343.5,469.5C 370.445,430.556 397.778,391.889 425.5,353.5 Z"/></g>
<g><path style="opacity:1" fill="#fdd703" d="M 582.5,366.5 C 582.69,377.857 582.356,389.19 581.5,400.5C 560.894,407.369 540.228,414.035 519.5,420.5C 511.748,412.418 504.748,403.751 498.5,394.5C 526.421,384.971 554.421,375.637 582.5,366.5 Z"/></g>
<g><path style="opacity:1" fill="#fdd703" d="M 617.5,366.5 C 645.907,375.412 673.907,385.079 701.5,395.5C 694.846,404.151 687.846,412.484 680.5,420.5C 659.772,414.035 639.106,407.369 618.5,400.5C 617.706,389.185 617.373,377.852 617.5,366.5 Z"/></g>
<g><path style="opacity:1" fill="#fcd102" d="M 751.5,386.5 C 772.833,417.167 794.167,447.833 815.5,478.5C 803.293,481.97 790.96,485.303 778.5,488.5C 779.303,487.577 779.47,486.577 779,485.5C 762.388,462.583 746.555,439.249 731.5,415.5C 737.429,405.303 744.096,395.636 751.5,386.5 Z"/></g>
<g><path style="opacity:1" fill="#fcd102" d="M 449.5,387.5 C 456.801,397.81 464.134,408.143 471.5,418.5C 469.807,419.475 468.307,420.808 467,422.5C 451.318,444.545 436.152,466.878 421.5,489.5C 409.5,486.5 397.5,483.5 385.5,480.5C 406.833,449.5 428.167,418.5 449.5,387.5 Z"/></g>
<g><path style="opacity:1" fill="#fede07" d="M 581.5,400.5 C 581.303,414.842 580.803,429.175 580,443.5C 579.275,445.949 578.275,448.283 577,450.5C 568.4,460.395 558.567,461.895 547.5,455C 537.954,443.626 528.621,432.126 519.5,420.5C 540.228,414.035 560.894,407.369 581.5,400.5 Z"/></g>
<g><path style="opacity:1" fill="#fede08" d="M 618.5,400.5 C 639.106,407.369 659.772,414.035 680.5,420.5C 671.543,432.214 662.209,443.714 652.5,455C 649.508,457.11 646.175,458.443 642.5,459C 630.653,459.488 623.153,453.988 620,442.5C 619.283,428.505 618.783,414.505 618.5,400.5 Z"/></g>
<g><path style="opacity:0.996" fill="#f29200" d="M 89.5,415.5 C 88.8346,418.984 88.5013,422.651 88.5,426.5C 91.4913,529.826 94.1579,633.159 96.5,736.5C 92.7026,738.396 88.7026,739.73 84.5,740.5C 79.3366,725.839 72.3366,712.172 63.5,699.5C 62.2758,619.638 60.2758,539.638 57.5,459.5C 68.223,445.394 76.8897,430.06 83.5,413.5C 85.7857,413.595 87.7857,414.262 89.5,415.5 Z"/></g>
<g><path style="opacity:0.997" fill="#f29200" d="M 1137.5,451.5 C 1136.5,533.998 1136.17,616.665 1136.5,699.5C 1128.36,712.81 1120.86,726.476 1114,740.5C 1110.94,739.435 1108.1,738.101 1105.5,736.5C 1105.83,629.999 1105.5,523.665 1104.5,417.5C 1108.26,415.242 1112.26,414.242 1116.5,414.5C 1122.23,427.641 1129.23,439.974 1137.5,451.5 Z"/></g>
<g><path style="opacity:0.998" fill="#f39700" d="M 89.5,415.5 C 95.784,416.928 101.784,418.928 107.5,421.5C 110.378,523.879 113.378,626.212 116.5,728.5C 109.833,731.167 103.167,733.833 96.5,736.5C 94.1579,633.159 91.4913,529.826 88.5,426.5C 88.5013,422.651 88.8346,418.984 89.5,415.5 Z"/></g>
<g><path style="opacity:1" fill="#fdd702" d="M 731.5,415.5 C 746.555,439.249 762.388,462.583 779,485.5C 779.47,486.577 779.303,487.577 778.5,488.5C 767.366,490.7 756.366,493.367 745.5,496.5C 735.53,483.015 725.696,469.348 716,455.5C 713.888,452.273 712.055,448.94 710.5,445.5C 716.729,434.942 723.729,424.942 731.5,415.5 Z"/></g>
<g><path style="opacity:0.999" fill="#f39700" d="M 1104.5,417.5 C 1105.5,523.665 1105.83,629.999 1105.5,736.5C 1099.22,734.686 1093.22,732.353 1087.5,729.5C 1086.17,627.5 1086.17,525.5 1087.5,423.5C 1089.57,423.047 1091.23,422.047 1092.5,420.5C 1096.5,419.5 1100.5,418.5 1104.5,417.5 Z"/></g>
<g><path style="opacity:1" fill="#fdd703" d="M 471.5,418.5 C 478.585,428.246 485.251,438.246 491.5,448.5C 479.164,464.511 467.831,481.178 457.5,498.5C 445.5,495.5 433.5,492.5 421.5,489.5C 436.152,466.878 451.318,444.545 467,422.5C 468.307,420.808 469.807,419.475 471.5,418.5 Z"/></g>
<g><path style="opacity:0.999" fill="#f49a00" d="M 107.5,421.5 C 110.221,421.963 112.888,422.629 115.5,423.5C 118.518,425.4 121.851,426.733 125.5,427.5C 128.098,525.17 130.765,622.837 133.5,720.5C 129.673,722.246 126.007,724.246 122.5,726.5C 120.421,726.971 118.421,727.637 116.5,728.5C 113.378,626.212 110.378,523.879 107.5,421.5 Z"/></g>
<g><path style="opacity:1" fill="#f49a00" d="M 1087.5,423.5 C 1086.17,525.5 1086.17,627.5 1087.5,729.5C 1086.83,729.5 1086.17,729.5 1085.5,729.5C 1080.29,726.648 1074.96,723.981 1069.5,721.5C 1069.5,624.167 1069.5,526.833 1069.5,429.5C 1075.42,427.304 1081.42,425.304 1087.5,423.5 Z"/></g>
<g><path style="opacity:1" fill="#f49f00" d="M 125.5,427.5 C 136.167,431.167 146.833,434.833 157.5,438.5C 159.903,528.498 162.237,618.498 164.5,708.5C 154.317,712.894 143.984,716.894 133.5,720.5C 130.765,622.837 128.098,525.17 125.5,427.5 Z"/></g>
<g><path style="opacity:1" fill="#f49f00" d="M 1069.5,429.5 C 1069.5,526.833 1069.5,624.167 1069.5,721.5C 1059.02,717.894 1048.68,713.894 1038.5,709.5C 1038.17,619.429 1038.5,529.429 1039.5,439.5C 1049.42,435.971 1059.42,432.637 1069.5,429.5 Z"/></g>
<g><path style="opacity:1" fill="#f5a500" d="M 157.5,438.5 C 168.391,441.796 179.057,445.463 189.5,449.5C 191.728,531.828 193.728,614.161 195.5,696.5C 185.167,700.5 174.833,704.5 164.5,708.5C 162.237,618.498 159.903,528.498 157.5,438.5 Z"/></g>
<g><path style="opacity:1" fill="#f5a500" d="M 1039.5,439.5 C 1038.5,529.429 1038.17,619.429 1038.5,709.5C 1027.85,705.733 1017.51,701.399 1007.5,696.5C 1007.5,614.5 1007.5,532.5 1007.5,450.5C 1017.94,446.463 1028.61,442.796 1039.5,439.5 Z"/></g>
<g><path style="opacity:1" fill="#fede05" d="M 710.5,445.5 C 712.055,448.94 713.888,452.273 716,455.5C 725.696,469.348 735.53,483.015 745.5,496.5C 732.094,499.893 718.594,502.893 705,505.5C 690.628,502.785 684.628,494.118 687,479.5C 694.306,467.712 702.14,456.379 710.5,445.5 Z"/></g>
<g><path style="opacity:1" fill="#fede07" d="M 491.5,448.5 C 499.716,458.575 507.216,469.241 514,480.5C 516.731,495.728 510.564,504.728 495.5,507.5C 482.676,505.127 470.01,502.127 457.5,498.5C 467.831,481.178 479.164,464.511 491.5,448.5 Z"/></g>
<g><path style="opacity:1" fill="#f6ab00" d="M 189.5,449.5 C 200.227,452.631 210.894,455.964 221.5,459.5C 223.176,534.184 225.176,608.85 227.5,683.5C 216.833,687.833 206.167,692.167 195.5,696.5C 193.728,614.161 191.728,531.828 189.5,449.5 Z"/></g>
<g><path style="opacity:1" fill="#f6ab01" d="M 1007.5,450.5 C 1007.5,532.5 1007.5,614.5 1007.5,696.5C 996.859,693.287 986.526,689.287 976.5,684.5C 976.5,609.833 976.5,535.167 976.5,460.5C 986.695,456.769 997.028,453.435 1007.5,450.5 Z"/></g>
<g><path style="opacity:0.994" fill="#f18c00" d="M 1137.5,451.5 C 1148.17,466.5 1158.83,481.5 1169.5,496.5C 1167.82,550.198 1166.82,604.198 1166.5,658.5C 1156.73,672.382 1146.73,686.049 1136.5,699.5C 1136.17,616.665 1136.5,533.998 1137.5,451.5 Z"/></g>
<g><path style="opacity:0.995" fill="#f18c00" d="M 57.5,459.5 C 60.2758,539.638 62.2758,619.638 63.5,699.5C 52.0123,684.528 41.0123,669.194 30.5,653.5C 31.1638,651.19 31.4971,648.69 31.5,646C 29.9361,598.173 28.6027,550.34 27.5,502.5C 36.7637,487.634 46.7637,473.301 57.5,459.5 Z"/></g>
<g><path style="opacity:1" fill="#f7b200" d="M 221.5,459.5 C 233.978,463.658 246.312,467.991 258.5,472.5C 260.324,538.162 261.991,603.829 263.5,669.5C 251.496,674.169 239.496,678.836 227.5,683.5C 225.176,608.85 223.176,534.184 221.5,459.5 Z"/></g>
<g><path style="opacity:1" fill="#f7b100" d="M 976.5,460.5 C 976.5,535.167 976.5,609.833 976.5,684.5C 964.716,680.107 953.05,675.441 941.5,670.5C 940.167,604.5 940.167,538.5 941.5,472.5C 953.162,468.502 964.828,464.502 976.5,460.5 Z"/></g>
<g><path style="opacity:1" fill="#f8b801" d="M 258.5,472.5 C 269.227,475.631 279.894,478.964 290.5,482.5C 292.114,540.493 293.447,598.493 294.5,656.5C 284.319,661.01 273.986,665.344 263.5,669.5C 261.991,603.829 260.324,538.162 258.5,472.5 Z"/></g>
<g><path style="opacity:1" fill="#f8b801" d="M 941.5,472.5 C 940.167,538.5 940.167,604.5 941.5,670.5C 930.597,666.538 919.93,662.204 909.5,657.5C 909.5,599.5 909.5,541.5 909.5,483.5C 919.943,479.463 930.609,475.796 941.5,472.5 Z"/></g>
<g><path style="opacity:1" fill="#f9bf01" d="M 290.5,482.5 C 301.167,486.167 311.833,489.833 322.5,493.5C 323.577,543.51 324.911,593.51 326.5,643.5C 316.07,648.204 305.403,652.538 294.5,656.5C 293.447,598.493 292.114,540.493 290.5,482.5 Z"/></g>
<g><path style="opacity:1" fill="#f9bf01" d="M 909.5,483.5 C 909.5,541.5 909.5,599.5 909.5,657.5C 899.207,654.013 889.207,650.013 879.5,645.5C 878.505,594.905 878.172,544.238 878.5,493.5C 888.695,489.769 899.028,486.435 909.5,483.5 Z"/></g>
<g><path style="opacity:1" fill="#fac401" d="M 322.5,493.5 C 333.391,496.796 344.057,500.463 354.5,504.5C 355.38,546.836 356.38,589.17 357.5,631.5C 347.317,635.894 336.984,639.894 326.5,643.5C 324.911,593.51 323.577,543.51 322.5,493.5 Z"/></g>
<g><path style="opacity:1" fill="#fac402" d="M 878.5,493.5 C 878.172,544.238 878.505,594.905 879.5,645.5C 868.597,641.538 857.93,637.204 847.5,632.5C 847.832,589.663 847.499,546.997 846.5,504.5C 856.943,500.463 867.609,496.796 878.5,493.5 Z"/></g>
<g><path style="opacity:0.986" fill="#f08600" d="M 1169.5,496.5 C 1182.99,515.138 1192.99,535.472 1199.5,557.5C 1199.5,570.5 1199.5,583.5 1199.5,596.5C 1192.68,619.474 1181.68,640.141 1166.5,658.5C 1166.82,604.198 1167.82,550.198 1169.5,496.5 Z"/></g>
<g><path style="opacity:0.982" fill="#f08700" d="M 27.5,502.5 C 28.6027,550.34 29.9361,598.173 31.5,646C 31.4971,648.69 31.1638,651.19 30.5,653.5C 15.344,634.521 5.01066,613.188 -0.5,589.5C -0.5,580.833 -0.5,572.167 -0.5,563.5C 4.22953,541.042 13.5629,520.708 27.5,502.5 Z"/></g>
<g><path style="opacity:1" fill="#fbcb02" d="M 354.5,504.5 C 366.972,508.102 379.306,512.102 391.5,516.5C 392.185,549.875 393.185,583.209 394.5,616.5C 382.343,621.739 370.01,626.739 357.5,631.5C 356.38,589.17 355.38,546.836 354.5,504.5 Z"/></g>
<g><path style="opacity:1" fill="#fbca01" d="M 846.5,504.5 C 847.499,546.997 847.832,589.663 847.5,632.5C 835.598,628.204 823.931,623.538 812.5,618.5C 811.507,584.573 811.174,550.573 811.5,516.5C 822.943,512.129 834.61,508.129 846.5,504.5 Z"/></g>
<g><path style="opacity:1" fill="#fcd102" d="M 811.5,516.5 C 811.174,550.573 811.507,584.573 812.5,618.5C 801.539,614.679 790.872,610.346 780.5,605.5C 781.158,579.145 780.491,553.145 778.5,527.5C 789.216,523.261 800.216,519.595 811.5,516.5 Z"/></g>
<g><path style="opacity:1" fill="#fcd102" d="M 391.5,516.5 C 402.391,519.796 413.057,523.463 423.5,527.5C 423.996,553.172 424.663,578.839 425.5,604.5C 415.282,608.775 404.949,612.775 394.5,616.5C 393.185,583.209 392.185,549.875 391.5,516.5 Z"/></g>
<g><path style="opacity:1" fill="#fdd703" d="M 423.5,527.5 C 434.784,530.595 445.784,534.261 456.5,538.5C 455.796,555.997 455.796,573.664 456.5,591.5C 446.345,596.072 436.012,600.405 425.5,604.5C 424.663,578.839 423.996,553.172 423.5,527.5 Z"/></g>
<g><path style="opacity:1" fill="#fdd703" d="M 778.5,527.5 C 780.491,553.145 781.158,579.145 780.5,605.5C 770.016,601.894 759.683,597.894 749.5,593.5C 749.83,574.659 749.497,555.993 748.5,537.5C 758.216,533.595 768.216,530.261 778.5,527.5 Z"/></g>
<g><path style="opacity:1" fill="#fede09" d="M 748.5,537.5 C 749.497,555.993 749.83,574.659 749.5,593.5C 739.411,589.625 729.411,585.458 719.5,581C 707.938,570.298 707.605,559.298 718.5,548C 728.196,543.601 738.196,540.101 748.5,537.5 Z"/></g>
<g><path style="opacity:1" fill="#fedd08" d="M 456.5,538.5 C 465.315,540.827 473.981,543.66 482.5,547C 493.77,557.368 494.437,568.368 484.5,580C 475.507,584.663 466.173,588.497 456.5,591.5C 455.796,573.664 455.796,555.997 456.5,538.5 Z"/></g>
<g><path style="opacity:0.999" fill="#c7000d" d="M 1082.5,739.5 C 1092.12,742.322 1101.79,744.989 1111.5,747.5C 1107.62,762.237 1105.45,777.237 1105,792.5C 1104.47,811.003 1104.64,829.503 1105.5,848C 1106.38,871.102 1103.22,893.602 1096,915.5C 1084.98,939.514 1067.15,956.347 1042.5,966C 1011.98,977.061 981.317,987.728 950.5,998C 938.066,1003.05 926.399,1009.38 915.5,1017C 905.333,1025.83 895.833,1035.33 887,1045.5C 869.384,1069.45 851.384,1093.12 833,1116.5C 801.802,1152.11 763.635,1162.28 718.5,1147C 690.073,1137.52 661.407,1128.86 632.5,1121C 611.839,1116.36 591.172,1116.36 570.5,1121C 540.382,1129.26 510.382,1137.93 480.5,1147C 434.167,1161.21 395.334,1150.05 364,1113.5C 359.572,1107.65 354.906,1101.98 350,1096.5C 335.438,1075.27 320.104,1054.6 304,1034.5C 289.752,1018.47 272.919,1005.97 253.5,997C 222.909,985.803 192.243,974.803 161.5,964C 142.873,956.62 127.039,945.453 114,930.5C 103.338,915.189 97.0049,898.189 95,879.5C 94.06,870.521 93.3934,861.521 93,852.5C 92.6667,828.5 92.3333,804.5 92,780.5C 91.2929,770.05 89.7929,759.717 87.5,749.5C 87.6082,748.558 87.9415,747.725 88.5,747C 100.88,743.595 113.213,740.095 125.5,736.5C 283.426,692.226 441.259,647.56 599,602.5C 760.069,648.692 921.236,694.359 1082.5,739.5 Z"/></g>
</svg>
