<?xml version="1.0" encoding="UTF-8"?>
<!DOCTYPE svg PUBLIC "-//W3C//DTD SVG 1.1//EN" "http://www.w3.org/Graphics/SVG/1.1/DTD/svg11.dtd">
<svg xmlns="http://www.w3.org/2000/svg" version="1.1" width="1200px" height="1238px" style="shape-rendering:geometricPrecision; text-rendering:geometricPrecision; image-rendering:optimizeQuality; fill-rule:evenodd; clip-rule:evenodd" xmlns:xlink="http://www.w3.org/1999/xlink">
<g><path style="opacity:0.992" fill="#e30512" d="M 577.5,-0.5 C 600.167,-0.5 622.833,-0.5 645.5,-0.5C 821.337,13.3245 964.504,88.3245 1075,224.5C 1151.77,324.633 1193.27,437.967 1199.5,564.5C 1199.5,579.5 1199.5,594.5 1199.5,609.5C 1191.77,758.953 1136.77,887.786 1034.5,996C 1033.83,996.667 1033.17,996.667 1032.5,996C 1021.65,985.319 1010.99,974.486 1000.5,963.5C 1119.06,835.652 1167.89,684.652 1147,510.5C 1121.74,356.035 1045.9,233.535 919.5,143C 796.969,60.7895 662.636,31.6228 516.5,55.5C 501.405,58.1407 486.405,61.3074 471.5,65C 469.68,65.2004 468.347,66.0337 467.5,67.5C 453.438,70.8553 439.771,75.1887 426.5,80.5C 407.502,86.0038 389.502,93.6705 372.5,103.5C 362.849,107.991 353.515,112.991 344.5,118.5C 325.839,127.833 308.505,139.166 292.5,152.5C 172.132,243.14 100.299,363.473 77,513.5C 67.2775,586.053 71.7775,657.72 90.5,728.5C 90.3779,730.791 89.5446,732.791 88,734.5C 77,748.5 66,762.5 55,776.5C 11.0124,640.792 14.0124,506.126 64,372.5C 116.661,243.511 203.161,144.011 323.5,74C 402.688,30.2061 487.355,5.37279 577.5,-0.5 Z M 467.5,67.5 C 467.667,213.834 467.5,360.167 467,506.5C 453.469,364.496 439.969,222.496 426.5,80.5C 439.771,75.1887 453.438,70.8553 467.5,67.5 Z M 602.5,572.5 C 604.655,572.372 606.655,572.872 608.5,574C 606.106,575.952 604.606,578.452 604,581.5C 601.13,583.075 598.963,582.408 597.5,579.5C 598.452,576.572 600.119,574.239 602.5,572.5 Z M 701.5,589.5 C 702.077,588.227 702.743,588.227 703.5,589.5C 703.03,590.463 702.363,590.463 701.5,589.5 Z M 727.5,645.5 C 721.582,643.874 715.915,644.541 710.5,647.5C 709.09,647.132 708.09,646.299 707.5,645C 710.459,639.578 713.793,634.412 717.5,629.5C 721.856,634.217 725.19,639.55 727.5,645.5 Z"/></g>
<g><path style="opacity:0.984" fill="#000000" d="M 516.5,55.5 C 516.5,449.5 516.5,843.5 516.5,1237.5C 501.833,1237.5 487.167,1237.5 472.5,1237.5C 457.199,1094.46 441.532,951.459 425.5,808.5C 424.11,951.497 423.11,1094.5 422.5,1237.5C 405.833,1237.5 389.167,1237.5 372.5,1237.5C 372.5,859.5 372.5,481.5 372.5,103.5C 389.502,93.6705 407.502,86.0038 426.5,80.5C 439.969,222.496 453.469,364.496 467,506.5C 467.5,360.167 467.667,213.834 467.5,67.5C 468.347,66.0337 469.68,65.2004 471.5,65C 486.405,61.3074 501.405,58.1407 516.5,55.5 Z"/></g>
<g><path style="opacity:0.983" fill="#000000" d="M 344.5,118.5 C 344.5,491.5 344.5,864.5 344.5,1237.5C 327.167,1237.5 309.833,1237.5 292.5,1237.5C 292.5,875.833 292.5,514.167 292.5,152.5C 308.505,139.166 325.839,127.833 344.5,118.5 Z"/></g>
<g><path style="opacity:0.936" fill="#000000" d="M 596.5,492.5 C 601.867,492.032 604.534,494.532 604.5,500C 603.539,513.34 602.539,526.673 601.5,540C 602.081,547.922 606.248,551.422 614,550.5C 620.152,550.403 626.152,549.403 632,547.5C 635.497,548.04 638.83,549.04 642,550.5C 648.047,548.862 650.881,551.362 650.5,558C 649.632,565.236 646.298,571.07 640.5,575.5C 632.854,577.738 626.021,581.405 620,586.5C 619.163,588.351 618.329,590.184 617.5,592C 618.755,596.759 621.088,600.925 624.5,604.5C 623.833,606.167 623.167,607.833 622.5,609.5C 617.249,610.987 611.916,612.154 606.5,613C 603.966,613.516 601.8,614.683 600,616.5C 598.295,649.476 597.295,682.476 597,715.5C 596.965,722.121 593.798,724.621 587.5,723C 586.283,721.352 585.45,719.519 585,717.5C 584.333,690.833 584.333,664.167 585,637.5C 585.195,632.582 585.695,627.749 586.5,623C 582.377,621.964 578.21,621.13 574,620.5C 572.699,619.902 571.865,618.902 571.5,617.5C 572.367,614.065 573.534,610.731 575,607.5C 578.508,605.413 581.842,603.08 585,600.5C 585.75,596.581 587.083,592.915 589,589.5C 591.087,579.95 587.587,577.117 578.5,581C 563.838,589.662 554.838,602.328 551.5,619C 546.239,621.748 542.072,620.581 539,615.5C 536.17,611.537 534.837,607.204 535,602.5C 537.895,592.122 540.895,581.789 544,571.5C 547.938,565.782 553.438,563.115 560.5,563.5C 560.085,567.375 560.585,571.042 562,574.5C 571.667,569.162 580.667,562.829 589,555.5C 590.13,548.768 590.63,541.935 590.5,535C 590.063,523.826 589.896,512.659 590,501.5C 591.611,498.062 593.777,495.062 596.5,492.5 Z M 602.5,572.5 C 600.119,574.239 598.452,576.572 597.5,579.5C 598.963,582.408 601.13,583.075 604,581.5C 604.606,578.452 606.106,575.952 608.5,574C 606.655,572.872 604.655,572.372 602.5,572.5 Z"/></g>
<g><path style="opacity:0.932" fill="#000000" d="M 720.5,529.5 C 732.47,530.663 744.47,531.496 756.5,532C 760.128,534.638 762.628,538.138 764,542.5C 765.819,561.151 767.486,579.817 769,598.5C 769.901,605.65 771.401,612.65 773.5,619.5C 769.466,634.638 764.966,649.638 760,664.5C 757.5,668.333 754.333,671.5 750.5,674C 747.5,674.667 744.5,674.667 741.5,674C 738.554,668.775 735.887,663.442 733.5,658C 733.645,657.228 733.978,656.561 734.5,656C 739.887,655.056 744.72,652.89 749,649.5C 751.268,644.761 752.435,639.761 752.5,634.5C 750.291,612.152 748.125,589.819 746,567.5C 745.219,561.356 743.886,555.356 742,549.5C 738.56,546.132 734.393,544.799 729.5,545.5C 716.477,546.006 704.144,549.172 692.5,555C 689.167,555.667 685.833,555.667 682.5,555C 679.593,551.122 680.26,547.789 684.5,545C 696.795,540.298 708.795,535.132 720.5,529.5 Z"/></g>
<g><path style="opacity:0.931" fill="#000000" d="M 883.5,534.5 C 890.625,533.466 894.125,536.466 894,543.5C 890.37,551.795 884.203,557.295 875.5,560C 863.005,563.119 850.339,564.119 837.5,563C 832.821,559.654 828.821,555.654 825.5,551C 825.759,549.739 826.426,548.739 827.5,548C 834.199,546.149 840.533,543.482 846.5,540C 859.287,540.311 871.62,538.478 883.5,534.5 Z"/></g>
<g><path style="opacity:0.911" fill="#000000" d="M 983.5,541.5 C 989.533,542.08 991.033,545.08 988,550.5C 982.702,555.644 977.035,560.311 971,564.5C 967.435,568.963 964.935,573.963 963.5,579.5C 965.314,584.167 967.814,588.5 971,592.5C 973.371,606.827 973.705,621.161 972,635.5C 965.687,645.724 956.521,649.558 944.5,647C 942.141,641.782 943.641,638.282 949,636.5C 958.185,624.908 960.852,611.908 957,597.5C 956.282,596.549 955.449,596.383 954.5,597C 950.358,600.962 946.692,605.296 943.5,610C 941.863,610.601 940.197,611.101 938.5,611.5C 932.407,610.822 926.407,609.655 920.5,608C 918.842,607.275 918.342,606.108 919,604.5C 923.618,599.102 929.451,595.602 936.5,594C 948.16,582.173 957.993,569.007 966,554.5C 970.652,548.317 976.485,543.984 983.5,541.5 Z"/></g>
<g><path style="opacity:0.923" fill="#000000" d="M 1117.5,544.5 C 1119.5,544.5 1121.5,544.5 1123.5,544.5C 1123.24,555.869 1123.74,567.203 1125,578.5C 1125.94,583.048 1127.94,587.048 1131,590.5C 1133.31,596.033 1132.97,601.367 1130,606.5C 1125.7,609.798 1121.7,613.465 1118,617.5C 1100.27,641.279 1076.44,652.613 1046.5,651.5C 1035.45,651.138 1024.45,650.305 1013.5,649C 1008.4,647.567 1004.9,644.4 1003,639.5C 1002,634.556 1001.5,629.556 1001.5,624.5C 1002.19,616.501 1002.36,608.501 1002,600.5C 998.255,599.703 994.421,599.203 990.5,599C 988.213,597.573 987.88,595.739 989.5,593.5C 993.212,589.976 997.545,587.476 1002.5,586C 1003.67,584.833 1004.83,583.667 1006,582.5C 1008.24,575.588 1009.24,568.588 1009,561.5C 1012.52,557.811 1016.69,555.144 1021.5,553.5C 1022.94,553.719 1024.27,554.219 1025.5,555C 1027.33,558.167 1029.83,560.667 1033,562.5C 1035.37,561.711 1037.53,560.544 1039.5,559C 1043.91,553.92 1048.91,549.586 1054.5,546C 1060.17,545.097 1065.67,545.597 1071,547.5C 1071.63,549.635 1071.3,551.635 1070,553.5C 1059.24,561.587 1049.08,570.42 1039.5,580C 1034.98,583.196 1030.48,586.363 1026,589.5C 1020.34,601.02 1020.01,612.686 1025,624.5C 1032.21,632.853 1041.38,637.02 1052.5,637C 1062.32,638.115 1071.99,637.448 1081.5,635C 1092.85,628.394 1103.02,620.227 1112,610.5C 1112.67,609.167 1113.33,607.833 1114,606.5C 1113.51,600.709 1113.01,594.876 1112.5,589C 1113.7,576.484 1113.7,563.984 1112.5,551.5C 1113.44,548.611 1115.11,546.278 1117.5,544.5 Z"/></g>
<g><path style="opacity:0.858" fill="#000000" d="M 719.5,553.5 C 723.839,552.846 727.673,553.846 731,556.5C 732.309,561.066 732.809,565.733 732.5,570.5C 724.969,569.476 719.969,565.309 717.5,558C 717.519,556.167 718.185,554.667 719.5,553.5 Z"/></g>
<g><path style="opacity:0.909" fill="#000000" d="M 700.5,557.5 C 701.873,557.343 703.207,557.51 704.5,558C 707.461,561.417 709.794,565.25 711.5,569.5C 714.421,570.543 716.921,572.21 719,574.5C 718.936,581.882 719.102,589.215 719.5,596.5C 720.365,597.583 721.365,597.749 722.5,597C 724.833,594 727.167,591 729.5,588C 731.235,587.349 732.902,587.515 734.5,588.5C 735.647,590.765 735.814,593.098 735,595.5C 730.067,600.867 726.567,607.033 724.5,614C 727.726,622.7 731.893,630.867 737,638.5C 737.667,640.5 737.667,642.5 737,644.5C 734.587,646.457 732.087,647.457 729.5,647.5C 731.429,650.22 732.263,653.22 732,656.5C 729.17,664.998 723.337,668.498 714.5,667C 711.833,666 709.167,665 706.5,664C 698.167,663.667 689.833,663.333 681.5,663C 679.092,659.957 678.926,656.791 681,653.5C 696.709,644.961 707.543,632.294 713.5,615.5C 711.684,613.183 709.684,611.016 707.5,609C 709.54,606.815 710.874,604.315 711.5,601.5C 703.525,605.812 697.525,612.145 693.5,620.5C 695.757,621.564 697.757,621.064 699.5,619C 707.844,618.372 708.844,621.039 702.5,627C 694.272,633.614 684.938,637.78 674.5,639.5C 672.119,639.512 670.452,638.512 669.5,636.5C 673.688,628.474 679.521,621.807 687,616.5C 687.167,615.833 687.333,615.167 687.5,614.5C 685.662,610.335 683.995,606.169 682.5,602C 683.793,598.926 684.627,595.759 685,592.5C 682.184,591.338 679.35,590.171 676.5,589C 675.424,587.274 675.257,585.441 676,583.5C 681.675,577.742 688.508,574.909 696.5,575C 700.426,574.42 701.926,572.253 701,568.5C 696.681,565.091 696.515,561.425 700.5,557.5 Z M 701.5,589.5 C 702.363,590.463 703.03,590.463 703.5,589.5C 702.743,588.227 702.077,588.227 701.5,589.5 Z M 727.5,645.5 C 725.19,639.55 721.856,634.217 717.5,629.5C 713.793,634.412 710.459,639.578 707.5,645C 708.09,646.299 709.09,647.132 710.5,647.5C 715.915,644.541 721.582,643.874 727.5,645.5 Z"/></g>
<g><path style="opacity:0.924" fill="#000000" d="M 836.5,570.5 C 838.857,570.337 841.19,570.503 843.5,571C 844.097,572.062 844.43,573.228 844.5,574.5C 841.206,583.476 837.706,592.476 834,601.5C 832.814,608.646 835.814,612.646 843,613.5C 850.529,613.108 858.029,612.608 865.5,612C 868.648,610.395 871.981,609.395 875.5,609C 882.845,603.828 890.845,599.994 899.5,597.5C 904.855,599.648 907.021,603.648 906,609.5C 902.715,614.454 899.048,619.12 895,623.5C 893.62,626.428 892.12,629.262 890.5,632C 893.689,635.944 897.689,638.944 902.5,641C 904.22,644.086 903.553,646.419 900.5,648C 891.193,650.486 882.193,653.82 873.5,658C 864.886,658.72 861.053,654.887 862,646.5C 865.468,641.066 869.301,635.899 873.5,631C 870.131,627.739 866.131,626.739 861.5,628C 855.954,628.973 850.621,630.473 845.5,632.5C 844.978,633.607 844.645,634.774 844.5,636C 849.436,646.271 846.769,653.605 836.5,658C 830.796,658.687 825.13,658.521 819.5,657.5C 819.052,653.476 818.386,649.476 817.5,645.5C 810.507,657.483 804.007,669.816 798,682.5C 782.23,707.526 764.397,731.026 744.5,753C 742.633,753.711 741.133,753.211 740,751.5C 739.333,749.5 739.333,747.5 740,745.5C 760.9,717.926 780.233,689.259 798,659.5C 809.316,633.553 818.649,606.887 826,579.5C 829.103,575.886 832.603,572.886 836.5,570.5 Z"/></g>
<g><path style="opacity:0.911" fill="#000000" d="M 662.5,574.5 C 664.752,574.916 666.252,576.249 667,578.5C 668.476,596.477 668.809,614.477 668,632.5C 666.056,642.754 660.89,650.754 652.5,656.5C 649.26,654.897 647.76,652.231 648,648.5C 647.333,643.5 647.333,638.5 648,633.5C 649.54,627.43 651.874,621.764 655,616.5C 655.155,605.791 655.822,595.125 657,584.5C 658.07,580.689 659.903,577.356 662.5,574.5 Z"/></g>
<g><path style="opacity:0.98" fill="#000000" d="M 189.5,1237.5 C 126.167,1237.5 62.8333,1237.5 -0.5,1237.5C -0.5,1237.17 -0.5,1236.83 -0.5,1236.5C 27.7974,1210.04 55.9641,1183.37 84,1156.5C 117.161,1168.25 141.161,1158.25 156,1126.5C 162.754,1104.36 158.754,1084.36 144,1066.5C 137.099,1058.93 129.599,1052.1 121.5,1046C 98.332,1031.92 75.332,1017.58 52.5,1003C 38.9543,990.412 30.7876,974.912 28,956.5C 23.6573,926.297 25.9906,896.63 35,867.5C 52.9622,803.69 86.4622,749.857 135.5,706C 173.184,673.996 216.517,653.496 265.5,644.5C 266.5,644.667 267.5,644.833 268.5,645C 194.547,692.292 139.047,755.792 102,835.5C 84.9879,875.327 81.3213,916.327 91,958.5C 96.3935,969.894 104.56,978.727 115.5,985C 130.833,992.667 146.167,1000.33 161.5,1008C 193.218,1025.05 216.718,1049.89 232,1082.5C 256.277,1145.08 242.111,1196.75 189.5,1237.5 Z"/></g>
<g><path style="opacity:0.985" fill="#e30512" d="M 135.5,842.5 C 168.655,903.373 211.822,956.373 265,1001.5C 265.833,1021.51 265.666,1041.51 264.5,1061.5C 202.34,1016.18 151.173,960.846 111,895.5C 118.573,877.68 126.739,860.014 135.5,842.5 Z"/></g>
<g><path style="opacity:0.982" fill="#000000" d="M 613.5,1237.5 C 612.5,1237.5 611.5,1237.5 610.5,1237.5C 588.895,1217.06 567.395,1196.4 546,1175.5C 545.333,1120.5 545.333,1065.5 546,1010.5C 567.702,990.463 589.702,970.796 612,951.5C 635.04,971.542 658.374,991.209 682,1010.5C 682.667,1060.83 682.667,1111.17 682,1161.5C 658.567,1186.43 635.734,1211.76 613.5,1237.5 Z M 591.5,1017.5 C 605.167,1017.5 618.833,1017.5 632.5,1017.5C 632.5,1065.83 632.5,1114.17 632.5,1162.5C 618.833,1162.5 605.167,1162.5 591.5,1162.5C 591.5,1114.17 591.5,1065.83 591.5,1017.5 Z"/></g>
<g><path style="opacity:0.969" fill="#000000" d="M 758.5,1237.5 C 743.833,1237.5 729.167,1237.5 714.5,1237.5C 714.333,1162.17 714.5,1086.83 715,1011.5C 737.704,991.127 760.704,971.127 784,951.5C 806.333,970.5 828.667,989.5 851,1008.5C 851.667,1066.17 851.667,1123.83 851,1181.5C 836.626,1196.21 821.959,1210.54 807,1224.5C 791.421,1212.26 776.421,1199.26 762,1185.5C 760.621,1202.84 759.455,1220.17 758.5,1237.5 Z M 765.5,1014.5 C 779.167,1014.5 792.833,1014.5 806.5,1014.5C 806.5,1064.5 806.5,1114.5 806.5,1164.5C 792.833,1164.5 779.167,1164.5 765.5,1164.5C 765.5,1114.5 765.5,1064.5 765.5,1014.5 Z"/></g>
<g><path style="opacity:0.973" fill="#000000" d="M 950.5,1237.5 C 949.5,1237.5 948.5,1237.5 947.5,1237.5C 926.845,1218.18 905.845,1199.18 884.5,1180.5C 883.333,1124.17 883.167,1067.84 884,1011.5C 905.967,991.868 927.634,971.868 949,951.5C 971.014,973.347 992.847,995.347 1014.5,1017.5C 986.841,1018.5 959.175,1018.83 931.5,1018.5C 931.5,1035.83 931.5,1053.17 931.5,1070.5C 959.167,1070.5 986.833,1070.5 1014.5,1070.5C 1014.5,1087.5 1014.5,1104.5 1014.5,1121.5C 986.833,1121.5 959.167,1121.5 931.5,1121.5C 931.5,1138.83 931.5,1156.17 931.5,1173.5C 959.175,1173.17 986.841,1173.5 1014.5,1174.5C 993.146,1195.52 971.813,1216.52 950.5,1237.5 Z"/></g>
<g><path style="opacity:0.974" fill="#000000" d="M 1106.5,1237.5 C 1105.5,1237.5 1104.5,1237.5 1103.5,1237.5C 1085.2,1220.03 1066.7,1202.7 1048,1185.5C 1047.33,1128.5 1047.33,1071.5 1048,1014.5C 1068.03,994.138 1088.36,974.138 1109,954.5C 1130.97,974.802 1152.64,995.468 1174,1016.5C 1174.5,1036.16 1174.67,1055.83 1174.5,1075.5C 1161.17,1075.5 1147.83,1075.5 1134.5,1075.5C 1134.5,1057.17 1134.5,1038.83 1134.5,1020.5C 1120.83,1020.5 1107.17,1020.5 1093.5,1020.5C 1093.32,1071.17 1093.65,1121.84 1094.5,1172.5C 1107.83,1172.5 1121.17,1172.5 1134.5,1172.5C 1134.55,1155.16 1134.88,1137.83 1135.5,1120.5C 1148.5,1120.5 1161.5,1120.5 1174.5,1120.5C 1174.67,1138.17 1174.5,1155.84 1174,1173.5C 1151.3,1194.7 1128.8,1216.03 1106.5,1237.5 Z"/></g>
</svg>
