<?xml version="1.0" encoding="UTF-8"?>
<!DOCTYPE svg PUBLIC "-//W3C//DTD SVG 1.1//EN" "http://www.w3.org/Graphics/SVG/1.1/DTD/svg11.dtd">
<svg xmlns="http://www.w3.org/2000/svg" version="1.1" width="1000px" height="1000px" style="shape-rendering:geometricPrecision; text-rendering:geometricPrecision; image-rendering:optimizeQuality; fill-rule:evenodd; clip-rule:evenodd" xmlns:xlink="http://www.w3.org/1999/xlink">
<g><path style="opacity:0.978" fill="#010101" d="M 498.5,51.5 C 500.433,52.6417 501.933,54.3083 503,56.5C 666.04,339.415 829.207,622.248 992.5,905C 663.833,905.833 335.166,905.667 6.5,904.5C 170.528,620.15 334.528,335.816 498.5,51.5 Z"/></g>
<g><path style="opacity:1" fill="#fefefe" d="M 498.5,92.5 C 500.776,94.3306 502.609,96.6639 504,99.5C 654.788,361.578 805.954,623.412 957.5,885C 652.166,885.833 346.833,885.667 41.5,884.5C 193.861,620.483 346.194,356.483 498.5,92.5 Z"/></g>
<g><path style="opacity:1" fill="#ef8506" d="M 431.5,404.5 C 435.514,404.334 439.514,404.501 443.5,405C 435.523,416.008 427.856,426.508 420.5,436.5C 419.754,437.736 419.421,439.07 419.5,440.5C 418.325,440.281 417.325,440.614 416.5,441.5C 413.584,447.568 410.084,452.568 406,456.5C 404.237,459.251 402.237,462.584 400,466.5C 395.977,468.244 395.477,470.744 398.5,474C 397.906,474.464 397.239,474.631 396.5,474.5C 391.05,467.77 385.716,460.936 380.5,454C 390.259,442.987 399.426,431.487 408,419.5C 414.209,411.76 422.043,406.76 431.5,404.5 Z"/></g>
<g><path style="opacity:1" fill="#ef8406" d="M 599.5,470.5 C 579.842,449.191 560.508,429.525 541.5,411.5C 540.438,409.978 539.771,408.312 539.5,406.5C 553.344,402.314 566.011,404.481 577.5,413C 588.256,421.681 596.756,432.181 603,444.5C 605.833,448.667 609.333,452.167 613.5,455C 608.968,460.362 604.301,465.528 599.5,470.5 Z"/></g>
<g><path style="opacity:1" fill="#f19102" d="M 431.5,404.5 C 435.981,403.352 440.648,403.185 445.5,404C 449.834,404.9 454.168,405.734 458.5,406.5C 459.058,407.79 460.058,408.623 461.5,409C 447.678,428.416 433.678,447.916 419.5,467.5C 418.754,468.736 418.421,470.07 418.5,471.5C 417.325,471.281 416.325,471.614 415.5,472.5C 413.07,475.592 411.07,478.925 409.5,482.5C 408.412,483.934 407.078,484.934 405.5,485.5C 402.739,481.65 399.739,477.983 396.5,474.5C 397.239,474.631 397.906,474.464 398.5,474C 395.477,470.744 395.977,468.244 400,466.5C 402.237,462.584 404.237,459.251 406,456.5C 410.084,452.568 413.584,447.568 416.5,441.5C 417.325,440.614 418.325,440.281 419.5,440.5C 419.421,439.07 419.754,437.736 420.5,436.5C 427.856,426.508 435.523,416.008 443.5,405C 439.514,404.501 435.514,404.334 431.5,404.5 Z"/></g>
<g><path style="opacity:1" fill="#f29b02" d="M 458.5,406.5 C 465.57,408.262 472.236,410.929 478.5,414.5C 478.863,416.911 477.863,418.411 475.5,419C 475.833,419.333 476.167,419.667 476.5,420C 472.974,424.209 469.807,428.709 467,433.5C 463.208,436.3 460.541,439.967 459,444.5C 458.25,445.126 457.416,445.626 456.5,446C 456.833,446.333 457.167,446.667 457.5,447C 456.069,447.465 454.903,448.299 454,449.5C 451.763,453.066 449.597,456.733 447.5,460.5C 437.283,474.412 427.283,487.745 417.5,500.5C 413.5,495.5 409.5,490.5 405.5,485.5C 407.078,484.934 408.412,483.934 409.5,482.5C 411.07,478.925 413.07,475.592 415.5,472.5C 416.325,471.614 417.325,471.281 418.5,471.5C 418.421,470.07 418.754,468.736 419.5,467.5C 433.678,447.916 447.678,428.416 461.5,409C 460.058,408.623 459.058,407.79 458.5,406.5 Z"/></g>
<g><path style="opacity:1" fill="#f19102" d="M 539.5,406.5 C 539.771,408.312 540.438,409.978 541.5,411.5C 560.508,429.525 579.842,449.191 599.5,470.5C 596.179,475.152 592.513,479.485 588.5,483.5C 582.564,477.062 576.397,470.729 570,464.5C 567.961,460.084 564.795,456.751 560.5,454.5C 558.799,453.198 557.632,451.531 557,449.5C 556.667,449.833 556.333,450.167 556,450.5C 555.517,449.552 555.351,448.552 555.5,447.5C 554.448,447.649 553.448,447.483 552.5,447C 552.833,446.667 553.167,446.333 553.5,446C 550.305,444.971 548.305,442.804 547.5,439.5C 540.777,433.697 534.277,427.697 528,421.5C 526.558,417.725 524.058,414.892 520.5,413C 521.056,412.617 521.389,412.117 521.5,411.5C 527.36,409.437 533.36,407.77 539.5,406.5 Z"/></g>
<g><path style="opacity:1" fill="#f29b02" d="M 521.5,411.5 C 521.389,412.117 521.056,412.617 520.5,413C 524.058,414.892 526.558,417.725 528,421.5C 534.277,427.697 540.777,433.697 547.5,439.5C 548.305,442.804 550.305,444.971 553.5,446C 553.167,446.333 552.833,446.667 552.5,447C 553.448,447.483 554.448,447.649 555.5,447.5C 555.351,448.552 555.517,449.552 556,450.5C 556.333,450.167 556.667,449.833 557,449.5C 557.632,451.531 558.799,453.198 560.5,454.5C 564.795,456.751 567.961,460.084 570,464.5C 576.397,470.729 582.564,477.062 588.5,483.5C 585.179,488.152 581.513,492.485 577.5,496.5C 570.119,488.648 561.786,480.814 552.5,473C 553.641,472.259 553.641,471.425 552.5,470.5C 545.157,463.989 537.99,457.322 531,450.5C 530.667,449.5 530.333,448.5 530,447.5C 524.373,442.039 518.873,436.372 513.5,430.5C 512.914,430.709 512.414,431.043 512,431.5C 509.258,428.139 507.091,424.472 505.5,420.5C 504.5,420.5 503.5,420.5 502.5,420.5C 502.5,419.5 502.5,418.5 502.5,417.5C 508.748,415.352 515.082,413.352 521.5,411.5 Z"/></g>
<g><path style="opacity:1" fill="#f4a901" d="M 478.5,414.5 C 483.36,416.139 488.36,417.139 493.5,417.5C 493.5,420.167 493.5,422.833 493.5,425.5C 492.683,427.969 492.183,430.635 492,433.5C 491.667,431.5 491.333,429.5 491,427.5C 488.752,432.083 486.086,436.417 483,440.5C 482.667,440.167 482.333,439.833 482,439.5C 471.636,456.187 460.302,472.187 448,487.5C 447.51,488.793 447.343,490.127 447.5,491.5C 446.325,491.281 445.325,491.614 444.5,492.5C 439.382,500.464 434.382,507.797 429.5,514.5C 425.155,510.153 421.155,505.486 417.5,500.5C 427.283,487.745 437.283,474.412 447.5,460.5C 449.597,456.733 451.763,453.066 454,449.5C 454.903,448.299 456.069,447.465 457.5,447C 457.167,446.667 456.833,446.333 456.5,446C 457.416,445.626 458.25,445.126 459,444.5C 460.541,439.967 463.208,436.3 467,433.5C 469.807,428.709 472.974,424.209 476.5,420C 476.167,419.667 475.833,419.333 475.5,419C 477.863,418.411 478.863,416.911 478.5,414.5 Z"/></g>
<g><path style="opacity:1" fill="#f6b204" d="M 493.5,425.5 C 493.5,429.5 493.5,433.5 493.5,437.5C 492.695,443.016 492.028,448.682 491.5,454.5C 490.683,452.031 490.183,449.365 490,446.5C 484.348,452.712 479.848,459.212 476.5,466C 475.584,466.374 474.75,466.874 474,467.5C 471.602,471.392 469.435,475.392 467.5,479.5C 466.325,479.281 465.325,479.614 464.5,480.5C 454.853,494.603 445.353,508.269 436,521.5C 435.329,520.748 434.496,520.414 433.5,520.5C 431.774,518.772 430.441,516.772 429.5,514.5C 434.382,507.797 439.382,500.464 444.5,492.5C 445.325,491.614 446.325,491.281 447.5,491.5C 447.343,490.127 447.51,488.793 448,487.5C 460.302,472.187 471.636,456.187 482,439.5C 482.333,439.833 482.667,440.167 483,440.5C 486.086,436.417 488.752,432.083 491,427.5C 491.333,429.5 491.667,431.5 492,433.5C 492.183,430.635 492.683,427.969 493.5,425.5 Z"/></g>
<g><path style="opacity:1" fill="#f4a903" d="M 502.5,417.5 C 502.5,418.5 502.5,419.5 502.5,420.5C 503.5,420.5 504.5,420.5 505.5,420.5C 507.091,424.472 509.258,428.139 512,431.5C 512.414,431.043 512.914,430.709 513.5,430.5C 518.873,436.372 524.373,442.039 530,447.5C 530.333,448.5 530.667,449.5 531,450.5C 537.99,457.322 545.157,463.989 552.5,470.5C 553.641,471.425 553.641,472.259 552.5,473C 561.786,480.814 570.119,488.648 577.5,496.5C 573.833,501.167 570.167,505.833 566.5,510.5C 560.606,504.095 554.106,497.428 547,490.5C 538.653,480.758 529.32,471.092 519,461.5C 518.391,458.39 516.557,456.39 513.5,455.5C 511.415,453.918 509.915,451.918 509,449.5C 508.667,449.833 508.333,450.167 508,450.5C 507.517,449.552 507.351,448.552 507.5,447.5C 506.448,447.649 505.448,447.483 504.5,447C 504.833,446.667 505.167,446.333 505.5,446C 503.939,445.682 502.772,444.849 502,443.5C 501.667,443.833 501.333,444.167 501,444.5C 500.768,443.263 500.268,442.263 499.5,441.5C 498.635,433.534 498.302,425.534 498.5,417.5C 499.833,417.5 501.167,417.5 502.5,417.5 Z"/></g>
<g><path style="opacity:1" fill="#fef1cf" d="M 493.5,437.5 C 493.892,447.06 493.225,456.393 491.5,465.5C 491.5,461.833 491.5,458.167 491.5,454.5C 492.028,448.682 492.695,443.016 493.5,437.5 Z"/></g>
<g><path style="opacity:1" fill="#f6b604" d="M 499.5,441.5 C 500.268,442.263 500.768,443.263 501,444.5C 501.333,444.167 501.667,443.833 502,443.5C 502.772,444.849 503.939,445.682 505.5,446C 505.167,446.333 504.833,446.667 504.5,447C 505.448,447.483 506.448,447.649 507.5,447.5C 507.351,448.552 507.517,449.552 508,450.5C 508.333,450.167 508.667,449.833 509,449.5C 509.915,451.918 511.415,453.918 513.5,455.5C 516.557,456.39 518.391,458.39 519,461.5C 529.32,471.092 538.653,480.758 547,490.5C 554.106,497.428 560.606,504.095 566.5,510.5C 562.511,515.821 558.178,520.821 553.5,525.5C 552.226,524.811 552.226,523.977 553.5,523C 550.238,520.408 547.738,517.241 546,513.5C 539.14,505.974 531.64,499.141 523.5,493C 524.609,491.187 523.942,490.354 521.5,490.5C 521.719,489.325 521.386,488.325 520.5,487.5C 514.667,483.164 509.333,478.331 504.5,473C 504.833,472.667 505.167,472.333 505.5,472C 504.151,471.228 503.318,470.061 503,468.5C 502.667,470.5 502.333,472.5 502,474.5C 501.809,472.292 501.309,470.292 500.5,468.5C 499.507,459.682 499.173,450.682 499.5,441.5 Z"/></g>
<g><path style="opacity:1" fill="#ef8404" d="M 389.5,475.5 C 389.631,476.239 389.464,476.906 389,477.5C 388.059,475.939 386.892,474.605 385.5,473.5C 379.928,477.625 375.428,482.625 372,488.5C 371.086,487.346 370.253,487.513 369.5,489C 369.833,489.333 370.167,489.667 370.5,490C 366.826,491.754 364.326,494.588 363,498.5C 362.667,498.167 362.333,497.833 362,497.5C 352.609,507.221 343.609,517.221 335,527.5C 328.566,533.986 321.9,540.319 315,546.5C 314.086,549.578 312.253,551.911 309.5,553.5C 311.772,554.485 314.105,555.319 316.5,556C 313.493,556.301 310.493,556.135 307.5,555.5C 307.46,552.119 307.793,548.786 308.5,545.5C 309.823,533.022 310.49,520.355 310.5,507.5C 312.038,490.566 320.371,478.4 335.5,471C 349.597,467.967 363.097,463.133 376,456.5C 377.261,456.759 378.261,457.426 379,458.5C 382.522,464.223 386.022,469.889 389.5,475.5 Z"/></g>
<g><path style="opacity:1" fill="#ef8303" d="M 683.5,544.5 C 678.731,540.783 674.398,536.616 670.5,532C 669.5,531.667 668.5,531.333 667.5,531C 663.06,526.048 658.56,521.215 654,516.5C 653.667,516.833 653.333,517.167 653,517.5C 638.015,503.02 622.515,489.02 606.5,475.5C 605.056,476.981 604.389,476.648 604.5,474.5C 608.082,468.246 612.082,462.246 616.5,456.5C 626.377,461.433 636.71,465.266 647.5,468C 655.621,471.56 663.288,475.893 670.5,481C 677.149,487.462 681.316,495.296 683,504.5C 683.5,517.829 683.667,531.163 683.5,544.5 Z"/></g>
<g><path style="opacity:1" fill="#f7bc01" d="M 491.5,454.5 C 491.5,458.167 491.5,461.833 491.5,465.5C 490.518,468.962 490.185,472.629 490.5,476.5C 481.71,486.952 473.71,497.952 466.5,509.5C 465.5,510.167 464.5,510.833 463.5,511.5C 458.734,519.61 453.067,527.61 446.5,535.5C 441.822,530.821 437.489,525.821 433.5,520.5C 434.496,520.414 435.329,520.748 436,521.5C 445.353,508.269 454.853,494.603 464.5,480.5C 465.325,479.614 466.325,479.281 467.5,479.5C 469.435,475.392 471.602,471.392 474,467.5C 474.75,466.874 475.584,466.374 476.5,466C 479.848,459.212 484.348,452.712 490,446.5C 490.183,449.365 490.683,452.031 491.5,454.5 Z"/></g>
<g><path style="opacity:1" fill="#f19102" d="M 389.5,475.5 C 392.526,479.205 395.192,483.205 397.5,487.5C 397.631,488.239 397.464,488.906 397,489.5C 396.311,488.643 395.478,487.977 394.5,487.5C 373.93,510.056 353.263,532.056 332.5,553.5C 331.675,554.386 330.675,554.719 329.5,554.5C 329.64,556.124 328.973,557.29 327.5,558C 329.359,558.601 329.692,559.434 328.5,560.5C 321.257,559.41 314.257,557.743 307.5,555.5C 310.493,556.135 313.493,556.301 316.5,556C 314.105,555.319 311.772,554.485 309.5,553.5C 312.253,551.911 314.086,549.578 315,546.5C 321.9,540.319 328.566,533.986 335,527.5C 343.609,517.221 352.609,507.221 362,497.5C 362.333,497.833 362.667,498.167 363,498.5C 364.326,494.588 366.826,491.754 370.5,490C 370.167,489.667 369.833,489.333 369.5,489C 370.253,487.513 371.086,487.346 372,488.5C 375.428,482.625 379.928,477.625 385.5,473.5C 386.892,474.605 388.059,475.939 389,477.5C 389.464,476.906 389.631,476.239 389.5,475.5 Z"/></g>
<g><path style="opacity:1" fill="#f19103" d="M 604.5,474.5 C 604.389,476.648 605.056,476.981 606.5,475.5C 622.515,489.02 638.015,503.02 653,517.5C 653.333,517.167 653.667,516.833 654,516.5C 658.56,521.215 663.06,526.048 667.5,531C 668.5,531.333 669.5,531.667 670.5,532C 674.398,536.616 678.731,540.783 683.5,544.5C 684.49,548.386 685.49,552.386 686.5,556.5C 682.186,557.275 677.853,557.941 673.5,558.5C 667.052,558.565 667.052,557.732 673.5,556C 660.789,546.249 649.455,535.916 639.5,525C 635.95,523.459 632.95,521.126 630.5,518C 629.552,517.517 628.552,517.351 627.5,517.5C 627.719,516.325 627.386,515.325 626.5,514.5C 616.035,504.637 605.702,495.637 595.5,487.5C 598.143,482.868 601.143,478.535 604.5,474.5 Z"/></g>
<g><path style="opacity:1" fill="#f8c201" d="M 500.5,468.5 C 501.309,470.292 501.809,472.292 502,474.5C 502.333,472.5 502.667,470.5 503,468.5C 503.318,470.061 504.151,471.228 505.5,472C 505.167,472.333 504.833,472.667 504.5,473C 509.333,478.331 514.667,483.164 520.5,487.5C 521.386,488.325 521.719,489.325 521.5,490.5C 523.942,490.354 524.609,491.187 523.5,493C 531.64,499.141 539.14,505.974 546,513.5C 547.738,517.241 550.238,520.408 553.5,523C 552.226,523.977 552.226,524.811 553.5,525.5C 550.858,529.148 548.191,532.815 545.5,536.5C 541.933,534.443 538.766,531.777 536,528.5C 532.67,524.514 529.337,520.514 526,516.5C 525.086,517.654 524.253,517.487 523.5,516C 520.869,512.701 517.536,509.367 513.5,506C 510.709,502.478 507.542,498.645 504,494.5C 503.333,495.833 502.667,495.833 502,494.5C 501.824,490.312 501.324,486.312 500.5,482.5C 500.5,477.833 500.5,473.167 500.5,468.5 Z"/></g>
<g><path style="opacity:1" fill="#f39d02" d="M 397.5,487.5 C 401.575,491.976 404.908,496.976 407.5,502.5C 407.225,504.842 406.392,504.842 405,502.5C 398.686,509.83 391.686,517.163 384,524.5C 383.667,525.5 383.333,526.5 383,527.5C 379.687,529.979 376.52,532.645 373.5,535.5C 370.961,539.41 368.128,543.077 365,546.5C 364.667,546.167 364.333,545.833 364,545.5C 363.517,546.448 363.351,547.448 363.5,548.5C 362.448,548.351 361.448,548.517 360.5,549C 360.833,549.333 361.167,549.667 361.5,550C 356.898,554.013 352.398,558.179 348,562.5C 347.833,562.833 347.667,563.167 347.5,563.5C 349.772,564.485 352.105,565.319 354.5,566C 352.527,566.495 350.527,566.662 348.5,566.5C 341.617,564.866 334.95,562.866 328.5,560.5C 329.692,559.434 329.359,558.601 327.5,558C 328.973,557.29 329.64,556.124 329.5,554.5C 330.675,554.719 331.675,554.386 332.5,553.5C 353.263,532.056 373.93,510.056 394.5,487.5C 395.478,487.977 396.311,488.643 397,489.5C 397.464,488.906 397.631,488.239 397.5,487.5 Z"/></g>
<g><path style="opacity:1" fill="#f39d02" d="M 595.5,487.5 C 605.702,495.637 616.035,504.637 626.5,514.5C 627.386,515.325 627.719,516.325 627.5,517.5C 628.552,517.351 629.552,517.517 630.5,518C 632.95,521.126 635.95,523.459 639.5,525C 649.455,535.916 660.789,546.249 673.5,556C 667.052,557.732 667.052,558.565 673.5,558.5C 667.141,560.944 660.475,562.611 653.5,563.5C 650.216,558.522 645.883,553.856 640.5,549.5C 639.311,548.571 637.978,548.238 636.5,548.5C 636.649,547.448 636.483,546.448 636,545.5C 635.667,545.833 635.333,546.167 635,546.5C 634.751,545.376 634.251,544.376 633.5,543.5C 628.639,539.796 623.972,535.962 619.5,532C 616.256,528.814 613.256,525.481 610.5,522C 606.169,518.013 601.502,514.347 596.5,511C 595.107,509.829 594.273,508.329 594,506.5C 593.667,506.833 593.333,507.167 593,507.5C 592.517,506.552 592.351,505.552 592.5,504.5C 589.961,503.413 587.628,502.746 585.5,502.5C 588.092,496.976 591.425,491.976 595.5,487.5 Z"/></g>
<g><path style="opacity:1" fill="#f9c903" d="M 490.5,476.5 C 490.44,485.513 490.107,494.513 489.5,503.5C 488.683,505.969 488.183,508.635 488,511.5C 486.853,510.542 485.853,510.875 485,512.5C 481.933,515.706 479.599,519.373 478,523.5C 471.43,531.732 465.263,540.232 459.5,549C 460.337,550.011 460.67,551.178 460.5,552.5C 455.127,547.425 450.461,541.759 446.5,535.5C 453.067,527.61 458.734,519.61 463.5,511.5C 464.5,510.833 465.5,510.167 466.5,509.5C 473.71,497.952 481.71,486.952 490.5,476.5 Z"/></g>
<g><path style="opacity:1" fill="#facc0f" d="M 500.5,482.5 C 501.324,486.312 501.824,490.312 502,494.5C 502.667,495.833 503.333,495.833 504,494.5C 507.542,498.645 510.709,502.478 513.5,506C 517.536,509.367 520.869,512.701 523.5,516C 524.253,517.487 525.086,517.654 526,516.5C 529.337,520.514 532.67,524.514 536,528.5C 538.766,531.777 541.933,534.443 545.5,536.5C 542.822,539.873 540.156,543.206 537.5,546.5C 537.093,545.238 536.76,543.905 536.5,542.5C 535.624,541.749 534.624,541.249 533.5,541C 534.609,539.187 533.942,538.354 531.5,538.5C 531.719,537.325 531.386,536.325 530.5,535.5C 523.777,529.697 517.277,523.697 511,517.5C 509.086,513.911 506.752,510.578 504,507.5C 503.536,513.175 502.869,513.508 502,508.5C 501.505,510.473 501.338,512.473 501.5,514.5C 500.506,504.013 500.172,493.346 500.5,482.5 Z"/></g>
<g><path style="opacity:1" fill="#f4aa04" d="M 407.5,502.5 C 410.883,506.553 413.883,510.886 416.5,515.5C 414.023,517.233 411.69,519.9 409.5,523.5C 408.675,524.386 407.675,524.719 406.5,524.5C 404.847,528.02 401.847,531.187 397.5,534C 397.833,534.333 398.167,534.667 398.5,535C 386.718,547.4 375.385,559.233 364.5,570.5C 358.906,569.768 353.573,568.435 348.5,566.5C 350.527,566.662 352.527,566.495 354.5,566C 352.105,565.319 349.772,564.485 347.5,563.5C 347.667,563.167 347.833,562.833 348,562.5C 352.398,558.179 356.898,554.013 361.5,550C 361.167,549.667 360.833,549.333 360.5,549C 361.448,548.517 362.448,548.351 363.5,548.5C 363.351,547.448 363.517,546.448 364,545.5C 364.333,545.833 364.667,546.167 365,546.5C 368.128,543.077 370.961,539.41 373.5,535.5C 376.52,532.645 379.687,529.979 383,527.5C 383.333,526.5 383.667,525.5 384,524.5C 391.686,517.163 398.686,509.83 405,502.5C 406.392,504.842 407.225,504.842 407.5,502.5 Z"/></g>
<g><path style="opacity:1" fill="#f4a902" d="M 585.5,502.5 C 587.628,502.746 589.961,503.413 592.5,504.5C 592.351,505.552 592.517,506.552 593,507.5C 593.333,507.167 593.667,506.833 594,506.5C 594.273,508.329 595.107,509.829 596.5,511C 601.502,514.347 606.169,518.013 610.5,522C 613.256,525.481 616.256,528.814 619.5,532C 623.972,535.962 628.639,539.796 633.5,543.5C 634.251,544.376 634.751,545.376 635,546.5C 635.333,546.167 635.667,545.833 636,545.5C 636.483,546.448 636.649,547.448 636.5,548.5C 637.978,548.238 639.311,548.571 640.5,549.5C 645.883,553.856 650.216,558.522 653.5,563.5C 647.776,565.767 641.776,567.434 635.5,568.5C 634.624,568.631 633.957,568.298 633.5,567.5C 634.326,566.549 634.492,565.549 634,564.5C 630.151,562.778 626.818,559.778 624,555.5C 619.675,553.54 616.008,550.207 613,545.5C 612.667,545.833 612.333,546.167 612,546.5C 611.517,545.552 611.351,544.552 611.5,543.5C 606.816,542.317 603.483,539.484 601.5,535C 597.355,532.353 593.355,529.519 589.5,526.5C 586.492,522.326 582.992,518.659 579,515.5C 577.608,517.842 576.775,517.842 576.5,515.5C 579.143,510.868 582.143,506.535 585.5,502.5 Z"/></g>
<g><path style="opacity:1" fill="#fbd505" d="M 537.5,546.5 C 534.975,550.896 531.975,554.896 528.5,558.5C 526.729,557.134 525.062,555.634 523.5,554C 523.833,553.667 524.167,553.333 524.5,553C 523.376,552.751 522.376,552.251 521.5,551.5C 515.872,545.702 510.372,539.702 505,533.5C 504.667,534.167 504.333,534.833 504,535.5C 503.768,534.263 503.268,533.263 502.5,532.5C 501.51,526.69 501.177,520.69 501.5,514.5C 501.338,512.473 501.505,510.473 502,508.5C 502.869,513.508 503.536,513.175 504,507.5C 506.752,510.578 509.086,513.911 511,517.5C 517.277,523.697 523.777,529.697 530.5,535.5C 531.386,536.325 531.719,537.325 531.5,538.5C 533.942,538.354 534.609,539.187 533.5,541C 534.624,541.249 535.624,541.749 536.5,542.5C 536.76,543.905 537.093,545.238 537.5,546.5 Z"/></g>
<g><path style="opacity:1" fill="#f4a347" d="M 310.5,507.5 C 310.49,520.355 309.823,533.022 308.5,545.5C 308.147,532.625 308.813,519.959 310.5,507.5 Z"/></g>
<g><path style="opacity:1" fill="#f6b602" d="M 576.5,515.5 C 576.775,517.842 577.608,517.842 579,515.5C 582.992,518.659 586.492,522.326 589.5,526.5C 593.355,529.519 597.355,532.353 601.5,535C 603.483,539.484 606.816,542.317 611.5,543.5C 611.351,544.552 611.517,545.552 612,546.5C 612.333,546.167 612.667,545.833 613,545.5C 616.008,550.207 619.675,553.54 624,555.5C 626.818,559.778 630.151,562.778 634,564.5C 634.492,565.549 634.326,566.549 633.5,567.5C 633.957,568.298 634.624,568.631 635.5,568.5C 629.02,570.453 622.354,572.12 615.5,573.5C 610.959,573.669 610.626,573.002 614.5,571.5C 612.46,568.222 609.96,566.222 607,565.5C 605.163,561.819 602.33,559.485 598.5,558.5C 598.649,557.448 598.483,556.448 598,555.5C 597.667,555.833 597.333,556.167 597,556.5C 596.654,554.152 595.487,552.319 593.5,551C 589.5,548 585.5,545 581.5,542C 579.19,540.363 577.69,538.196 577,535.5C 575.187,536.609 574.354,535.942 574.5,533.5C 573.448,533.649 572.448,533.483 571.5,533C 571.833,532.667 572.167,532.333 572.5,532C 570.939,531.682 569.772,530.849 569,529.5C 567.893,530.712 567.393,530.379 567.5,528.5C 570.143,523.868 573.143,519.535 576.5,515.5 Z"/></g>
<g><path style="opacity:1" fill="#f6b602" d="M 416.5,515.5 C 420.312,519.777 423.645,524.443 426.5,529.5C 422.558,536.247 417.725,541.58 412,545.5C 403.895,555.608 395.062,565.108 385.5,574C 386.167,574.333 386.833,574.667 387.5,575C 384.493,575.301 381.493,575.135 378.5,574.5C 373.729,573.144 369.063,571.811 364.5,570.5C 375.385,559.233 386.718,547.4 398.5,535C 398.167,534.667 397.833,534.333 397.5,534C 401.847,531.187 404.847,528.02 406.5,524.5C 407.675,524.719 408.675,524.386 409.5,523.5C 411.69,519.9 414.023,517.233 416.5,515.5 Z"/></g>
<g><path style="opacity:1" fill="#fbd805" d="M 489.5,503.5 C 489.667,523.836 489.5,544.169 489,564.5C 488.991,571.854 485.491,574.687 478.5,573C 472.139,566.416 466.139,559.583 460.5,552.5C 460.67,551.178 460.337,550.011 459.5,549C 465.263,540.232 471.43,531.732 478,523.5C 479.599,519.373 481.933,515.706 485,512.5C 485.853,510.875 486.853,510.542 488,511.5C 488.183,508.635 488.683,505.969 489.5,503.5 Z"/></g>
<g><path style="opacity:1" fill="#f8c004" d="M 567.5,528.5 C 567.393,530.379 567.893,530.712 569,529.5C 569.772,530.849 570.939,531.682 572.5,532C 572.167,532.333 571.833,532.667 571.5,533C 572.448,533.483 573.448,533.649 574.5,533.5C 574.354,535.942 575.187,536.609 577,535.5C 577.69,538.196 579.19,540.363 581.5,542C 585.5,545 589.5,548 593.5,551C 595.487,552.319 596.654,554.152 597,556.5C 597.333,556.167 597.667,555.833 598,555.5C 598.483,556.448 598.649,557.448 598.5,558.5C 602.33,559.485 605.163,561.819 607,565.5C 609.96,566.222 612.46,568.222 614.5,571.5C 610.626,573.002 610.959,573.669 615.5,573.5C 610.862,575.783 605.862,577.116 600.5,577.5C 598.801,577.66 597.134,577.494 595.5,577C 596.833,575.16 596.666,574.66 595,575.5C 587.51,568.093 579.677,560.926 571.5,554C 571.833,553.667 572.167,553.333 572.5,553C 568.227,551.061 564.894,548.061 562.5,544C 561.167,543.667 559.833,543.333 558.5,543C 559.252,542.329 559.586,541.496 559.5,540.5C 561.673,536.148 564.34,532.148 567.5,528.5 Z"/></g>
<g><path style="opacity:1" fill="#f8c108" d="M 426.5,529.5 C 430.853,534.527 434.853,539.86 438.5,545.5C 437.448,545.351 436.448,545.517 435.5,546C 430.919,551.699 425.919,557.032 420.5,562C 419.1,563.438 417.433,564.271 415.5,564.5C 415.649,565.552 415.483,566.552 415,567.5C 412.598,569.968 410.431,572.635 408.5,575.5C 407.914,575.291 407.414,574.957 407,574.5C 406.487,576.521 405.32,578.021 403.5,579C 403.833,579.333 404.167,579.667 404.5,580C 403.552,580.483 402.552,580.649 401.5,580.5C 393.525,579.257 385.858,577.257 378.5,574.5C 381.493,575.135 384.493,575.301 387.5,575C 386.833,574.667 386.167,574.333 385.5,574C 395.062,565.108 403.895,555.608 412,545.5C 417.725,541.58 422.558,536.247 426.5,529.5 Z"/></g>
<g><path style="opacity:1" fill="#fde313" d="M 502.5,532.5 C 503.268,533.263 503.768,534.263 504,535.5C 504.333,534.833 504.667,534.167 505,533.5C 510.372,539.702 515.872,545.702 521.5,551.5C 522.376,552.251 523.376,552.751 524.5,553C 524.167,553.333 523.833,553.667 523.5,554C 525.062,555.634 526.729,557.134 528.5,558.5C 524.417,565.419 519.083,571.253 512.5,576C 511.167,576.667 509.833,576.667 508.5,576C 506.623,573.749 505.123,571.249 504,568.5C 502.977,556.52 502.477,544.52 502.5,532.5 Z"/></g>
<g><path style="opacity:1" fill="#fad108" d="M 559.5,540.5 C 559.586,541.496 559.252,542.329 558.5,543C 559.833,543.333 561.167,543.667 562.5,544C 564.894,548.061 568.227,551.061 572.5,553C 572.167,553.333 571.833,553.667 571.5,554C 579.677,560.926 587.51,568.093 595,575.5C 596.666,574.66 596.833,575.16 595.5,577C 597.134,577.494 598.801,577.66 600.5,577.5C 589.71,580.865 578.71,583.865 567.5,586.5C 567.082,585.778 566.416,585.278 565.5,585C 566.956,584.577 567.456,583.744 567,582.5C 565.681,580.513 563.848,579.346 561.5,579C 558.231,574.205 554.564,570.705 550.5,568.5C 549.273,567.41 548.44,566.076 548,564.5C 546.984,565.634 546.317,565.301 546,563.5C 544.89,565.037 543.39,565.703 541.5,565.5C 547.267,556.952 553.267,548.619 559.5,540.5 Z"/></g>
<g><path style="opacity:1" fill="#facf0a" d="M 438.5,545.5 C 442.411,550.322 446.078,555.322 449.5,560.5C 448.127,560.343 446.793,560.51 445.5,561C 437.777,568.388 430.444,576.054 423.5,584C 424.167,584.333 424.833,584.667 425.5,585C 424.584,585.278 423.918,585.778 423.5,586.5C 415.963,584.866 408.63,582.866 401.5,580.5C 402.552,580.649 403.552,580.483 404.5,580C 404.167,579.667 403.833,579.333 403.5,579C 405.32,578.021 406.487,576.521 407,574.5C 407.414,574.957 407.914,575.291 408.5,575.5C 410.431,572.635 412.598,569.968 415,567.5C 415.483,566.552 415.649,565.552 415.5,564.5C 417.433,564.271 419.1,563.438 420.5,562C 425.919,557.032 430.919,551.699 435.5,546C 436.448,545.517 437.448,545.351 438.5,545.5 Z"/></g>
<g><path style="opacity:1" fill="#f29902" d="M 320.5,565.5 C 317.761,565.797 315.094,565.797 312.5,565.5C 315.809,588.407 319.142,611.241 322.5,634C 322.352,635.707 322.018,637.374 321.5,639C 321.63,640.059 322.13,640.892 323,641.5C 324.004,651.543 325.337,661.543 327,671.5C 329.447,670.004 330.281,670.337 329.5,672.5C 325.942,674.112 322.275,675.445 318.5,676.5C 317.992,674.767 317.159,674.434 316,675.5C 315.638,670.319 315.138,665.152 314.5,660C 314.325,658.342 313.658,657.009 312.5,656C 313.951,653.606 313.618,651.439 311.5,649.5C 312.167,648.833 312.833,648.167 313.5,647.5C 312.381,642.831 311.214,638.164 310,633.5C 308.384,617.495 306.718,601.495 305,585.5C 304.853,582.89 304.019,580.556 302.5,578.5C 303.585,575.227 303.752,571.894 303,568.5C 302.23,567.402 301.397,567.402 300.5,568.5C 301.64,566.22 302.807,563.886 304,561.5C 304.725,560.941 305.558,560.608 306.5,560.5C 311.386,561.793 316.053,563.46 320.5,565.5 Z"/></g>
<g><path style="opacity:1" fill="#f29702" d="M 703.5,584.5 C 701.775,598.659 700.275,612.992 699,627.5C 698.766,631.314 697.932,634.981 696.5,638.5C 698.984,639.894 698.984,641.394 696.5,643C 696.911,644.144 697.244,645.311 697.5,646.5C 695.781,651.337 694.781,656.337 694.5,661.5C 694.64,663.03 695.307,664.03 696.5,664.5C 692.218,669.459 689.218,675.126 687.5,681.5C 682.554,680.629 677.887,678.962 673.5,676.5C 672.942,675.21 671.942,674.377 670.5,674C 671.448,673.517 672.448,673.351 673.5,673.5C 677.762,640.782 681.262,607.782 684,574.5C 684.409,570.703 685.242,567.036 686.5,563.5C 684.131,563.851 681.797,564.018 679.5,564C 680.942,563.623 681.942,562.79 682.5,561.5C 684.67,560.232 686.837,560.232 689,561.5C 693.344,569.532 698.177,577.199 703.5,584.5 Z"/></g>
<g><path style="opacity:1" fill="#fde20b" d="M 567.5,586.5 C 561.248,588.486 554.915,590.153 548.5,591.5C 543.203,592.275 537.87,592.608 532.5,592.5C 531.542,592.047 530.708,591.381 530,590.5C 529.333,587.833 529.333,585.167 530,582.5C 533.663,576.679 537.497,571.012 541.5,565.5C 543.39,565.703 544.89,565.037 546,563.5C 546.317,565.301 546.984,565.634 548,564.5C 548.44,566.076 549.273,567.41 550.5,568.5C 554.564,570.705 558.231,574.205 561.5,579C 563.848,579.346 565.681,580.513 567,582.5C 567.456,583.744 566.956,584.577 565.5,585C 566.416,585.278 567.082,585.778 567.5,586.5 Z"/></g>
<g><path style="opacity:1" fill="#f39f02" d="M 682.5,561.5 C 681.942,562.79 680.942,563.623 679.5,564C 681.797,564.018 684.131,563.851 686.5,563.5C 685.242,567.036 684.409,570.703 684,574.5C 681.262,607.782 677.762,640.782 673.5,673.5C 672.448,673.351 671.448,673.517 670.5,674C 671.942,674.377 672.942,675.21 673.5,676.5C 669.873,675.679 666.54,674.346 663.5,672.5C 663.389,671.883 663.056,671.383 662.5,671C 663.667,670.5 664.5,669.667 665,668.5C 669.198,635.748 672.698,602.914 675.5,570C 675.325,568.342 674.658,567.009 673.5,566C 674.056,565.617 674.389,565.117 674.5,564.5C 676.936,563.129 679.603,562.129 682.5,561.5 Z"/></g>
<g><path style="opacity:1" fill="#f39f00" d="M 320.5,565.5 C 322.579,565.971 324.579,566.637 326.5,567.5C 325.791,568.404 324.791,568.737 323.5,568.5C 327.238,601.503 331.405,634.169 336,666.5C 336.995,667.066 337.828,667.733 338.5,668.5C 335.471,669.84 332.471,671.173 329.5,672.5C 330.281,670.337 329.447,670.004 327,671.5C 325.337,661.543 324.004,651.543 323,641.5C 322.13,640.892 321.63,640.059 321.5,639C 322.018,637.374 322.352,635.707 322.5,634C 319.142,611.241 315.809,588.407 312.5,565.5C 315.094,565.797 317.761,565.797 320.5,565.5 Z"/></g>
<g><path style="opacity:1" fill="#fcde12" d="M 449.5,560.5 C 454.893,567.069 459.726,574.069 464,581.5C 467.393,592.775 463.227,596.942 451.5,594C 442.207,591.178 432.873,588.678 423.5,586.5C 423.918,585.778 424.584,585.278 425.5,585C 424.833,584.667 424.167,584.333 423.5,584C 430.444,576.054 437.777,568.388 445.5,561C 446.793,560.51 448.127,560.343 449.5,560.5 Z"/></g>
<g><path style="opacity:1" fill="#f4a803" d="M 674.5,564.5 C 674.389,565.117 674.056,565.617 673.5,566C 674.658,567.009 675.325,568.342 675.5,570C 672.698,602.914 669.198,635.748 665,668.5C 664.5,669.667 663.667,670.5 662.5,671C 663.056,671.383 663.389,671.883 663.5,672.5C 657.943,669.979 652.276,667.645 646.5,665.5C 645.942,664.21 644.942,663.377 643.5,663C 645.061,662.682 646.228,661.849 647,660.5C 647.132,656.338 647.966,652.338 649.5,648.5C 649.028,646.693 648.694,644.86 648.5,643C 650.076,635.736 651.409,628.403 652.5,621C 652.089,619.856 651.756,618.689 651.5,617.5C 653.639,602.884 655.306,588.218 656.5,573.5C 654.131,573.851 651.797,574.018 649.5,574C 650.942,573.623 651.942,572.79 652.5,571.5C 659.828,569.168 667.162,566.834 674.5,564.5 Z"/></g>
<g><path style="opacity:1" fill="#f19102" d="M 318.5,676.5 C 314.466,678.737 310.132,680.404 305.5,681.5C 302.548,673.596 298.548,666.263 293.5,659.5C 292.685,655.134 292.685,650.467 293.5,645.5C 290.454,627.84 287.787,610.173 285.5,592.5C 289.716,583.963 294.716,575.963 300.5,568.5C 301.397,567.402 302.23,567.402 303,568.5C 303.752,571.894 303.585,575.227 302.5,578.5C 304.019,580.556 304.853,582.89 305,585.5C 306.718,601.495 308.384,617.495 310,633.5C 311.214,638.164 312.381,642.831 313.5,647.5C 312.833,648.167 312.167,648.833 311.5,649.5C 313.618,651.439 313.951,653.606 312.5,656C 313.658,657.009 314.325,658.342 314.5,660C 315.138,665.152 315.638,670.319 316,675.5C 317.159,674.434 317.992,674.767 318.5,676.5 Z"/></g>
<g><path style="opacity:1" fill="#f4a701" d="M 326.5,567.5 C 333.833,569.833 341.167,572.167 348.5,574.5C 349.125,576.77 348.125,577.104 345.5,575.5C 344.738,576.628 344.071,577.795 343.5,579C 345.529,594.02 347.863,609.02 350.5,624C 351.429,628.846 351.429,633.846 350.5,639C 351.658,640.009 352.325,641.342 352.5,643C 352.815,649.359 353.815,655.526 355.5,661.5C 349.952,664.107 344.285,666.44 338.5,668.5C 337.828,667.733 336.995,667.066 336,666.5C 331.405,634.169 327.238,601.503 323.5,568.5C 324.791,568.737 325.791,568.404 326.5,567.5 Z"/></g>
<g><path style="opacity:1" fill="#f6b205" d="M 652.5,571.5 C 651.942,572.79 650.942,573.623 649.5,574C 651.797,574.018 654.131,573.851 656.5,573.5C 655.306,588.218 653.639,602.884 651.5,617.5C 651.756,618.689 652.089,619.856 652.5,621C 651.409,628.403 650.076,635.736 648.5,643C 648.694,644.86 649.028,646.693 649.5,648.5C 647.966,652.338 647.132,656.338 647,660.5C 646.228,661.849 645.061,662.682 643.5,663C 644.942,663.377 645.942,664.21 646.5,665.5C 642.873,664.679 639.54,663.346 636.5,661.5C 636.389,660.883 636.056,660.383 635.5,660C 638.772,657.505 639.439,654.338 637.5,650.5C 640.938,626.448 643.605,602.281 645.5,578C 645.167,577.5 644.833,577 644.5,576.5C 642.684,577.735 641.017,577.735 639.5,576.5C 639.611,575.883 639.944,575.383 640.5,575C 644.596,574.116 648.596,572.95 652.5,571.5 Z"/></g>
<g><path style="opacity:1" fill="#f7bc03" d="M 639.5,576.5 C 641.017,577.735 642.684,577.735 644.5,576.5C 644.833,577 645.167,577.5 645.5,578C 643.605,602.281 640.938,626.448 637.5,650.5C 639.439,654.338 638.772,657.505 635.5,660C 636.056,660.383 636.389,660.883 636.5,661.5C 630.024,659.093 623.69,656.426 617.5,653.5C 617.389,652.883 617.056,652.383 616.5,652C 620.429,649.14 621.429,645.473 619.5,641C 622.597,621.724 624.93,602.391 626.5,583C 626.167,582.667 625.833,582.333 625.5,582C 626.942,581.623 627.942,580.79 628.5,579.5C 632.082,578.21 635.749,577.21 639.5,576.5 Z"/></g>
<g><path style="opacity:1" fill="#f6b601" d="M 348.5,574.5 C 355.257,577.419 362.257,579.752 369.5,581.5C 368.817,583.176 367.483,583.843 365.5,583.5C 366.461,596.189 368.127,608.523 370.5,620.5C 370.46,622.429 370.127,624.262 369.5,626C 371.046,627.44 371.879,629.273 372,631.5C 372.26,637.551 372.927,643.551 374,649.5C 375.098,650.967 376.598,651.801 378.5,652C 377.944,652.383 377.611,652.883 377.5,653.5C 370.243,656.364 362.91,659.03 355.5,661.5C 353.815,655.526 352.815,649.359 352.5,643C 352.325,641.342 351.658,640.009 350.5,639C 351.429,633.846 351.429,628.846 350.5,624C 347.863,609.02 345.529,594.02 343.5,579C 344.071,577.795 344.738,576.628 345.5,575.5C 348.125,577.104 349.125,576.77 348.5,574.5 Z"/></g>
<g><path style="opacity:1" fill="#f08c07" d="M 703.5,584.5 C 710.469,593.434 715.635,603.434 719,614.5C 719.667,619.5 719.667,624.5 719,629.5C 712.985,642.214 705.485,653.881 696.5,664.5C 695.307,664.03 694.64,663.03 694.5,661.5C 694.781,656.337 695.781,651.337 697.5,646.5C 697.244,645.311 696.911,644.144 696.5,643C 698.984,641.394 698.984,639.894 696.5,638.5C 697.932,634.981 698.766,631.314 699,627.5C 700.275,612.992 701.775,598.659 703.5,584.5 Z"/></g>
<g><path style="opacity:1" fill="#f8c203" d="M 369.5,581.5 C 376.366,583.454 383.033,585.788 389.5,588.5C 388.432,589.434 387.099,589.768 385.5,589.5C 385.748,599.8 387.415,609.8 390.5,619.5C 390.081,620.672 389.415,621.672 388.5,622.5C 391.548,629.45 392.882,636.783 392.5,644.5C 394.179,644.285 395.179,644.952 395.5,646.5C 389.309,648.451 383.309,650.784 377.5,653.5C 377.611,652.883 377.944,652.383 378.5,652C 376.598,651.801 375.098,650.967 374,649.5C 372.927,643.551 372.26,637.551 372,631.5C 371.879,629.273 371.046,627.44 369.5,626C 370.127,624.262 370.46,622.429 370.5,620.5C 368.127,608.523 366.461,596.189 365.5,583.5C 367.483,583.843 368.817,583.176 369.5,581.5 Z"/></g>
<g><path style="opacity:1" fill="#f9c807" d="M 628.5,579.5 C 627.942,580.79 626.942,581.623 625.5,582C 625.833,582.333 626.167,582.667 626.5,583C 624.93,602.391 622.597,621.724 619.5,641C 621.429,645.473 620.429,649.14 616.5,652C 617.056,652.383 617.389,652.883 617.5,653.5C 611.68,651.624 606.014,649.29 600.5,646.5C 599.942,645.21 598.942,644.377 597.5,644C 601.497,640.091 602.497,635.424 600.5,630C 601.977,626.67 602.811,623.17 603,619.5C 603.408,610.792 604.241,602.125 605.5,593.5C 605.511,591.083 604.511,589.417 602.5,588.5C 611.01,585.51 619.677,582.51 628.5,579.5 Z"/></g>
<g><path style="opacity:1" fill="#f9cb05" d="M 389.5,588.5 C 394.325,589.669 398.991,591.002 403.5,592.5C 401.5,592.833 399.5,593.167 397.5,593.5C 397.331,597.657 397.998,601.657 399.5,605.5C 399.274,607.189 398.941,608.855 398.5,610.5C 399.425,612.236 400.092,614.07 400.5,616C 401.143,624.225 402.143,632.392 403.5,640.5C 405.398,639.904 407.065,639.904 408.5,640.5C 404.239,642.484 399.906,644.484 395.5,646.5C 395.179,644.952 394.179,644.285 392.5,644.5C 392.882,636.783 391.548,629.45 388.5,622.5C 389.415,621.672 390.081,620.672 390.5,619.5C 387.415,609.8 385.748,599.8 385.5,589.5C 387.099,589.768 388.432,589.434 389.5,588.5 Z"/></g>
<g><path style="opacity:1" fill="#fad20d" d="M 602.5,588.5 C 604.511,589.417 605.511,591.083 605.5,593.5C 604.241,602.125 603.408,610.792 603,619.5C 602.811,623.17 601.977,626.67 600.5,630C 602.497,635.424 601.497,640.091 597.5,644C 598.942,644.377 599.942,645.21 600.5,646.5C 595.265,644.871 590.265,642.871 585.5,640.5C 587.792,640.756 589.959,640.423 592,639.5C 593.468,623.794 594.802,608.127 596,592.5C 593.258,592.275 590.424,592.608 587.5,593.5C 592.216,591.261 597.216,589.595 602.5,588.5 Z"/></g>
<g><path style="opacity:1" fill="#f08808" d="M 285.5,592.5 C 287.787,610.173 290.454,627.84 293.5,645.5C 292.685,650.467 292.685,655.134 293.5,659.5C 284.925,650.056 279.092,639.056 276,626.5C 274.825,613.857 277.992,602.524 285.5,592.5 Z"/></g>
<g><path style="opacity:1" fill="#fff9b2" d="M 548.5,591.5 C 548.082,592.222 547.416,592.722 546.5,593C 541.648,593.815 536.981,593.648 532.5,592.5C 537.87,592.608 543.203,592.275 548.5,591.5 Z"/></g>
<g><path style="opacity:1" fill="#fbd505" d="M 403.5,592.5 C 408.981,593.772 414.314,595.439 419.5,597.5C 419.082,598.222 418.416,598.722 417.5,599C 418.803,602.468 418.803,605.968 417.5,609.5C 419.428,614.444 420.761,619.61 421.5,625C 420.823,627.726 420.99,630.559 422,633.5C 423.145,632.316 424.312,632.316 425.5,633.5C 420.152,636.4 414.485,638.733 408.5,640.5C 407.065,639.904 405.398,639.904 403.5,640.5C 402.143,632.392 401.143,624.225 400.5,616C 400.092,614.07 399.425,612.236 398.5,610.5C 398.941,608.855 399.274,607.189 399.5,605.5C 397.998,601.657 397.331,597.657 397.5,593.5C 399.5,593.167 401.5,592.833 403.5,592.5 Z"/></g>
<g><path style="opacity:1" fill="#fcdb0a" d="M 585.5,640.5 C 579.676,638.342 574.01,636.009 568.5,633.5C 570.117,632.962 571.784,632.629 573.5,632.5C 573.987,621.5 575.32,610.5 577.5,599.5C 576.757,598.818 576.091,598.151 575.5,597.5C 579.155,595.171 583.155,593.837 587.5,593.5C 590.424,592.608 593.258,592.275 596,592.5C 594.802,608.127 593.468,623.794 592,639.5C 589.959,640.423 587.792,640.756 585.5,640.5 Z"/></g>
<g><path style="opacity:1" fill="#fde40d" d="M 419.5,597.5 C 431.496,599.496 442.829,603.329 453.5,609C 458.833,613 458.833,617 453.5,621C 444.351,625.657 435.018,629.824 425.5,633.5C 424.312,632.316 423.145,632.316 422,633.5C 420.99,630.559 420.823,627.726 421.5,625C 420.761,619.61 419.428,614.444 417.5,609.5C 418.803,605.968 418.803,602.468 417.5,599C 418.416,598.722 419.082,598.222 419.5,597.5 Z"/></g>
<g><path style="opacity:1" fill="#feea0f" d="M 575.5,597.5 C 576.091,598.151 576.757,598.818 577.5,599.5C 575.32,610.5 573.987,621.5 573.5,632.5C 571.784,632.629 570.117,632.962 568.5,633.5C 560.851,630.446 553.184,627.279 545.5,624C 534.499,617.343 534.833,611.343 546.5,606C 556.199,603.267 565.866,600.434 575.5,597.5 Z"/></g>
<g><path style="opacity:1" fill="#ef5a5f" d="M 496.5,630.5 C 494.194,630.993 491.861,631.326 489.5,631.5C 491.713,629.688 494.047,629.355 496.5,630.5 Z"/></g>
<g><path style="opacity:1" fill="#e50112" d="M 496.5,630.5 C 499.598,630.756 502.598,631.422 505.5,632.5C 507.515,633.924 509.848,634.59 512.5,634.5C 521.586,637.747 530.919,640.414 540.5,642.5C 542.515,643.924 544.848,644.59 547.5,644.5C 556.695,647.281 566.028,649.947 575.5,652.5C 577.515,653.924 579.848,654.59 582.5,654.5C 602.296,660.783 622.296,666.45 642.5,671.5C 644.515,672.924 646.848,673.59 649.5,673.5C 658.568,676.74 667.901,679.407 677.5,681.5C 679.515,682.924 681.848,683.59 684.5,683.5C 685.239,686.652 685.239,689.985 684.5,693.5C 684.148,706.682 683.815,720.016 683.5,733.5C 683.469,745.395 678.802,754.895 669.5,762C 657.607,767.634 645.274,772.301 632.5,776C 619.967,781.86 609.134,790.027 600,800.5C 593.441,810.448 586.274,819.948 578.5,829C 569.75,834.972 560.083,837.806 549.5,837.5C 547.485,836.076 545.152,835.41 542.5,835.5C 534.537,833.007 526.537,830.507 518.5,828C 505.891,825.184 493.225,824.851 480.5,827C 470.496,829.947 460.496,832.781 450.5,835.5C 449.167,835.5 447.833,835.5 446.5,835.5C 440.131,835.653 433.797,835.32 427.5,834.5C 419.164,831.68 412.331,826.68 407,819.5C 399.285,807.121 390.118,795.954 379.5,786C 365.467,778.318 350.8,771.985 335.5,767C 328.154,763.323 321.654,758.489 316,752.5C 312.308,746.743 310.308,740.409 310,733.5C 309.431,716.48 308.598,699.48 307.5,682.5C 368.184,665.498 428.851,648.498 489.5,631.5C 491.861,631.326 494.194,630.993 496.5,630.5 Z"/></g>
<g><path style="opacity:1" fill="#f8a4a8" d="M 505.5,632.5 C 508.152,632.41 510.485,633.076 512.5,634.5C 509.848,634.59 507.515,633.924 505.5,632.5 Z"/></g>
<g><path style="opacity:1" fill="#f8a1a4" d="M 540.5,642.5 C 543.152,642.41 545.485,643.076 547.5,644.5C 544.848,644.59 542.515,643.924 540.5,642.5 Z"/></g>
<g><path style="opacity:1" fill="#f79b9e" d="M 575.5,652.5 C 578.152,652.41 580.485,653.076 582.5,654.5C 579.848,654.59 577.515,653.924 575.5,652.5 Z"/></g>
<g><path style="opacity:1" fill="#f8a7aa" d="M 642.5,671.5 C 645.152,671.41 647.485,672.076 649.5,673.5C 646.848,673.59 644.515,672.924 642.5,671.5 Z"/></g>
<g><path style="opacity:1" fill="#f8a3a8" d="M 677.5,681.5 C 680.152,681.41 682.485,682.076 684.5,683.5C 681.848,683.59 679.515,682.924 677.5,681.5 Z"/></g>
<g><path style="opacity:1" fill="#f8a9ad" d="M 684.5,693.5 C 684.464,702.179 684.797,710.846 685.5,719.5C 685.579,724.412 684.912,729.079 683.5,733.5C 683.815,720.016 684.148,706.682 684.5,693.5 Z"/></g>
<g><path style="opacity:1" fill="#ed4c55" d="M 427.5,834.5 C 433.797,835.32 440.131,835.653 446.5,835.5C 442.366,836.485 438.032,836.818 433.5,836.5C 431.214,836.405 429.214,835.738 427.5,834.5 Z"/></g>
<g><path style="opacity:1" fill="#fabbbf" d="M 446.5,835.5 C 447.833,835.5 449.167,835.5 450.5,835.5C 450.082,836.222 449.416,836.722 448.5,837C 443.316,837.816 438.316,837.65 433.5,836.5C 438.032,836.818 442.366,836.485 446.5,835.5 Z"/></g>
<g><path style="opacity:1" fill="#f48c92" d="M 542.5,835.5 C 545.152,835.41 547.485,836.076 549.5,837.5C 546.848,837.59 544.515,836.924 542.5,835.5 Z"/></g>
</svg>
