<?xml version="1.0" encoding="UTF-8"?>
<!DOCTYPE svg PUBLIC "-//W3C//DTD SVG 1.1//EN" "http://www.w3.org/Graphics/SVG/1.1/DTD/svg11.dtd">
<svg xmlns="http://www.w3.org/2000/svg" version="1.1" width="651px" height="911px" style="shape-rendering:geometricPrecision; text-rendering:geometricPrecision; image-rendering:optimizeQuality; fill-rule:evenodd; clip-rule:evenodd" xmlns:xlink="http://www.w3.org/1999/xlink">
<g><path style="opacity:0.992" fill="#4e4f4e" d="M 255.5,-0.5 C 301.5,-0.5 347.5,-0.5 393.5,-0.5C 453.04,1.61257 511.706,10.4459 569.5,26C 596.707,32.8462 620.207,46.0129 640,65.5C 644.572,71.3161 648.072,77.6495 650.5,84.5C 650.5,89.5 650.5,94.5 650.5,99.5C 646.923,109.308 641.757,118.308 635,126.5C 632.211,131.534 630.211,136.868 629,142.5C 628.667,178.167 628.333,213.833 628,249.5C 626.285,258.207 621.785,265.04 614.5,270C 582.348,286.16 548.348,296.493 512.5,301C 386.657,317.32 260.991,315.987 135.5,297C 100.914,291.582 67.5807,281.915 35.5,268C 29.0045,263.847 24.8378,258.013 23,250.5C 21.9663,217.175 21.2996,183.841 21,150.5C 19.3923,135.338 14.059,121.671 5,109.5C 2.6512,105.259 0.817868,100.925 -0.5,96.5C -0.5,93.1667 -0.5,89.8333 -0.5,86.5C 2.63134,74.769 8.96467,64.9356 18.5,57C 42.0968,38.5415 68.7634,26.5415 98.5,21C 150.345,9.14621 202.678,1.97954 255.5,-0.5 Z M 327.5,52.5 C 383.804,52.5758 439.804,56.7425 495.5,65C 529.76,69.8116 562.76,78.9782 594.5,92.5C 578.175,102.444 560.509,108.944 541.5,112C 397.82,140.646 254.153,140.646 110.5,112C 96.0466,108.071 81.7133,103.738 67.5,99C 60.8497,95.7712 60.1831,91.7712 65.5,87C 122.822,67.2795 181.822,56.9461 242.5,56C 270.976,54.3725 299.309,53.2058 327.5,52.5 Z"/></g>
<g><path style="opacity:0.994" fill="#4e4f4e" d="M 27.5,310.5 C 31.5138,310.334 35.5138,310.501 39.5,311C 75.7439,324.449 113.077,333.449 151.5,338C 243.6,348.526 335.933,351.526 428.5,347C 482.059,344.159 534.725,335.825 586.5,322C 594.833,319 603.167,316 611.5,313C 621.619,310.304 627.119,314.138 628,324.5C 628.667,438.833 628.667,553.167 628,667.5C 627.162,676.007 623.328,682.84 616.5,688C 591.14,700.899 564.474,710.232 536.5,716C 513.379,720.807 490.046,724.14 466.5,726C 374.759,733.955 283.092,733.288 191.5,724C 144.462,718.55 98.1289,709.55 52.5,697C 31.3276,689.85 21.1609,675.016 22,652.5C 21.9682,548.663 21.8015,444.83 21.5,341C 21.6667,334.833 21.8333,328.667 22,322.5C 22.2117,317.674 24.0451,313.674 27.5,310.5 Z M 325.5,399.5 C 329.44,400.726 332.607,403.06 335,406.5C 356.424,437.293 375.424,469.626 392,503.5C 408.326,538.792 414.992,575.792 412,614.5C 407.208,640.961 391.708,657.461 365.5,664C 333.882,673.859 302.882,672.193 272.5,659C 248.274,643.896 236.274,621.896 236.5,593C 236.889,577.388 239.722,562.221 245,547.5C 259.151,506.867 277.817,468.534 301,432.5C 306.917,423.669 312.583,414.669 318,405.5C 320.114,402.879 322.614,400.879 325.5,399.5 Z"/></g>
<g><path style="opacity:0.956" fill="#4e4f4e" d="M 378.5,561.5 C 382.192,560.971 385.358,561.971 388,564.5C 400.498,582.973 402.831,602.64 395,623.5C 384.412,640.737 369.246,651.904 349.5,657C 342.316,659.309 334.983,660.309 327.5,660C 347.113,641.939 361.613,620.439 371,595.5C 373.69,585.673 375.356,575.673 376,565.5C 376.662,564.016 377.496,562.683 378.5,561.5 Z"/></g>
<g><path style="opacity:0.992" fill="#4e4f4e" d="M 348.5,910.5 C 331.5,910.5 314.5,910.5 297.5,910.5C 231.981,908.757 166.981,901.257 102.5,888C 77.4707,881.815 54.1374,871.815 32.5,858C 24.2767,852.289 20.2767,844.455 20.5,834.5C 21.8824,826.574 22.5491,818.574 22.5,810.5C 21.491,787.839 21.3243,765.172 22,742.5C 22.2616,734.576 26.2616,730.242 34,729.5C 105.373,752.312 178.54,764.812 253.5,767C 313.168,768.969 372.835,768.969 432.5,767C 494.652,764.569 554.986,752.903 613.5,732C 620.111,730.057 624.611,732.223 627,738.5C 628.328,770.158 628.661,801.824 628,833.5C 627.183,845.977 621.683,855.81 611.5,863C 582.985,878.505 552.652,888.839 520.5,894C 463.372,903.259 406.039,908.759 348.5,910.5 Z"/></g>
</svg>
